<svg version="1.2" xmlns="http://www.w3.org/2000/svg" viewBox="0 0 292 376" width="292" height="376"><style>.a{fill:none;stroke:#efb557;stroke-linecap:round;stroke-miterlimit:10}.b{fill:#efb557}</style><path class="a" d="m15.2 5.5h-3.6v7.6h-7.6v3.4"/><path class="a" d="m254.7 5.5h-220.6"/><path class="a" d="m4 35.4v304.3"/><path fill-rule="evenodd" class="b" d="m131.4 10.9l-2.3 1.6-1.5-1h-95.3v5.8q0 0 0 0.1 0 0.1-0.1 0.1 0 0-0.1 0.1 0 0-0.1 0h-10.3v4.8h4.7q0.1 0 0.1 0 0.1 0 0.1 0.1 0.1 0 0.1 0.1 0 0 0 0.1v4.9q0.4 0 0.7 0 0.3 0 0.6 0 0.3-0.1 0.7-0.2 0.3-0.1 0.5-0.3 0.3 0 0.5-0.2 0.1-0.1 0.3-0.3 0.1-0.2 0.2-0.5 0.1-0.2 0.1-0.4 0-0.2 0-0.3 0-0.2-0.1-0.3-0.1-0.1-0.2-0.2-0.1-0.1-0.3-0.2-0.1-0.1-0.2-0.1-0.2 0-0.3 0-0.2 0-0.3 0-0.2 0.1-0.3 0.2-0.1 0-0.2 0.1-0.1 0.1-0.1 0.2 0 0.2-0.1 0.3 0 0.1 0.1 0.2 0 0.1 0 0.1 0 0.1 0.1 0.1 0 0.1 0.1 0.1 0 0 0.1 0 0 0 0.1 0.1 0 0 0 0 0.1 0 0.1 0 0.1-0.1 0.1-0.1 0.1 0 0.1 0 0.1 0 0.1 0 0.1 0 0.1 0 0.1 0 0.1 0.1 0.1 0 0.1 0.1 0 0.1 0 0.1 0 0.1 0 0.1-0.1 0.1-0.1 0.1-0.1 0.1-0.2 0.1-0.1 0.1-0.2 0.1-0.1 0-0.3 0-0.1 0-0.2 0-0.1-0.1-0.2-0.1-0.1-0.1-0.2-0.2-0.1-0.1-0.2-0.2-0.1-0.1-0.1-0.2-0.1-0.2-0.1-0.5 0-0.2 0.1-0.4 0.1-0.2 0.2-0.4 0.2-0.2 0.3-0.3 0.2-0.1 0.5-0.2 0.2-0.1 0.4-0.1 0.3 0 0.5 0 0.2 0.1 0.4 0.2 0.2 0.1 0.4 0.3 0.2 0.1 0.3 0.3 0.1 0.2 0.2 0.5 0.1 0.2 0.1 0.4-0.1 0.4-0.2 0.7-0.1 0.3-0.3 0.5-0.2 0.3-0.4 0.5-0.3 0.2-0.6 0.3-0.3 0.2-0.6 0.3-0.3 0.1-0.7 0.2-0.3 0.1-0.6 0.1-0.4 0-0.7-0.1 0 0.4 0 0.8 0 0.3-0.1 0.7 0 0.4-0.1 0.7-0.2 0.3-0.3 0.7-0.2 0.3-0.4 0.5-0.2 0.3-0.4 0.4-0.3 0.2-0.6 0.3-0.3 0.2-0.6 0.2-0.5 0-0.9-0.3-0.4-0.2-0.7-0.6-0.2-0.5-0.2-1 0.1-0.4 0.3-0.8 0.2-0.2 0.4-0.4 0.1-0.1 0.3-0.2 0.3 0 0.5-0.1 0.2 0 0.4 0.1 0.1 0 0.3 0.1 0.1 0.1 0.2 0.2 0 0.1 0.1 0.2 0.1 0.1 0.1 0.2 0 0.1 0.1 0.3 0 0.1-0.1 0.2 0 0.1 0 0.2-0.1 0.1-0.1 0.2-0.1 0.1-0.3 0.2-0.1 0-0.2-0.1-0.1-0.1-0.1-0.2 0-0.2 0.1-0.3 0 0 0-0.1 0 0 0 0 0-0.1 0-0.1 0-0.1 0-0.1 0 0-0.1-0.1 0 0 0-0.1-0.1 0-0.1-0.1-0.1 0-0.1 0-0.1 0-0.3 0-0.1 0-0.2 0-0.1 0.1-0.2 0.1-0.1 0.1-0.2 0.2-0.1 0.1-0.1 0.3-0.1 0.1-0.1 0.3 0 0.1 0 0.3 0.1 0.1 0.1 0.3 0.1 0.1 0.2 0.2 0.1 0.1 0.3 0.2 0.1 0.1 0.2 0.1 0.2 0.1 0.3 0.1 0.3-0.1 0.5-0.2 0.2 0 0.4-0.2 0.2-0.1 0.4-0.3 0.1-0.2 0.2-0.4 0.2-0.3 0.3-0.6 0.1-0.3 0.1-0.7 0.1-0.3 0.1-0.6 0-0.3-0.1-0.7h-4.9q-0.1 0-0.1 0-0.1 0-0.1 0-0.1-0.1-0.1-0.1 0-0.1 0-0.2v-4.9h-4.7v10.5q0 0.1 0 0.1 0 0.1-0.1 0.1 0 0.1-0.1 0.1 0 0-0.1 0h-6v95.2l1.1 1.4-1.7 2.3-1.7-2.3 1-1.4v-97q-0.2 0.3-0.5 0.7-0.2 0.3-0.6 0.5-0.3 0.2-0.7 0.4-0.4 0.2-0.8 0.3-0.1 0-0.2 0-0.1 0.1-0.2 0.1-0.1 0-0.2 0-0.1 0-0.2 0-0.4 0-0.8-0.1-0.5-0.2-0.8-0.4-0.4-0.2-0.7-0.5-0.4-0.3-0.6-0.7-0.3-0.5-0.4-1-0.2-0.6-0.2-1.1 0.1-0.6 0.2-1.1 0.2-0.6 0.6-1 0.1-0.2 0.3-0.3 0.1-0.2 0.3-0.3 0.2-0.1 0.4-0.2 0.2-0.1 0.4-0.2 0.3 0 0.5 0 0.3 0 0.5 0.1 0.3 0 0.5 0.2 0.2 0.1 0.4 0.3 0.2 0.2 0.3 0.4 0.2 0.2 0.3 0.4 0.1 0.3 0.1 0.5 0.1 0.3 0.1 0.6 0 0.1-0.1 0.2 0 0.1-0.1 0.1-0.1 0.1-0.2 0.2-0.1 0-0.2 0-0.1 0-0.2 0-0.1-0.1-0.2-0.2 0 0-0.1-0.2 0-0.1 0-0.2 0-0.1 0-0.3-0.1-0.1-0.1-0.2-0.1-0.2-0.1-0.3-0.1-0.1-0.2-0.2-0.1-0.1-0.2-0.2-0.1 0-0.3-0.1-0.1 0-0.2 0-0.1 0-0.3 0-0.1 0.1-0.2 0.1-0.1 0.1-0.2 0.1-0.1 0.1-0.2 0.2-0.1 0.1-0.2 0.2-0.2 0.3-0.3 0.7-0.1 0.4-0.2 0.8 0 0.4 0.1 0.7 0.1 0.4 0.3 0.8 0.3 0.3 0.5 0.5 0.3 0.2 0.7 0.4 0.3 0.1 0.7 0.1 0.3 0 0.7 0 0.4-0.1 0.7-0.3 0.4-0.2 0.7-0.5 0.3-0.2 0.5-0.5 0.3-0.4 0.4-0.7 0.1-0.2 0.2-0.4 0.1-0.2 0.2-0.5 0-0.2 0.1-0.4 0-0.2 0-0.4v-6.1h-2.1c-0.8 0-1.6-0.3-2.1-0.9-0.6-0.5-0.9-1.3-0.9-2.1 0-0.8 0.3-1.6 0.9-2.1 0.5-0.6 1.3-0.9 2.1-0.9h2.1v-5.5h-5.2v-6.5h6.5v5.2h5.7v-2.1q0-0.6 0.2-1.1 0.2-0.6 0.7-0.9 0.4-0.4 0.9-0.6 0.6-0.2 1.2-0.2 0.5 0 1.1 0.2 0.5 0.2 1 0.5 0.4 0.4 0.6 1 0.3 0.5 0.3 1.1v2.1h6.2q0.2 0 0.4 0 0.2-0.1 0.4-0.2 0.2 0 0.4-0.1 0.1-0.1 0.3-0.2 0.4-0.2 0.7-0.4 0.3-0.2 0.6-0.5 0.3-0.4 0.4-0.7 0.2-0.4 0.3-0.8 0.1-0.3 0.1-0.7 0-0.3-0.2-0.7-0.1-0.3-0.3-0.6-0.3-0.3-0.6-0.5-0.3-0.2-0.7-0.3-0.4-0.1-0.8-0.1-0.4 0.1-0.7 0.2-0.4 0.1-0.7 0.4-0.1 0-0.2 0.1-0.1 0.1-0.2 0.2 0 0.1-0.1 0.2 0 0.1-0.1 0.3 0 0.1 0 0.2 0 0.1 0.1 0.3 0 0.1 0.1 0.2 0 0.1 0.1 0.2 0.1 0.1 0.2 0.2 0.2 0 0.3 0.1 0.1 0 0.3 0.1 0.1 0 0.3 0 0.2 0 0.4 0.2 0.1 0.1 0.1 0.3 0 0.3-0.1 0.4-0.2 0.2-0.4 0.2-0.3 0-0.5 0-0.3-0.1-0.5-0.2-0.3-0.1-0.5-0.2-0.2-0.2-0.4-0.4-0.2-0.1-0.3-0.4-0.1-0.2-0.2-0.4-0.1-0.3-0.1-0.5 0-0.3 0-0.6 0.1-0.2 0.2-0.4 0-0.2 0.2-0.3 0.1-0.2 0.2-0.4 0.2-0.2 0.3-0.3 0.5-0.3 1-0.5 0.6-0.2 1.1-0.3 0.6 0 1.2 0.1 0.5 0.2 1 0.5 0.4 0.3 0.8 0.7 0.3 0.4 0.5 0.9 0.2 0.5 0.3 1 0 0.5-0.1 1-0.1 0.4-0.2 0.8-0.2 0.4-0.4 0.7-0.3 0.4-0.6 0.7-0.3 0.3-0.6 0.5h97l1.4-1zm-122.6-0.6v-4h-4v4zm0 12.1v-4.8h-2.2c-0.6 0.1-1.1 0.4-1.5 0.8-0.4 0.5-0.6 1.1-0.6 1.6 0 0.6 0.2 1.2 0.6 1.7 0.4 0.4 0.9 0.7 1.5 0.7zm6.9 0.7h-5.6v10.2h5.6zm0-5.5h-5.7v4.8h5.6zm0-6h-5.6v5.4h5.6zm5.4 6.1h-4.7v4.8h4.7zm0-6.1h-4.7v5.5h4.7zm0-3.4q0-0.5-0.2-0.9-0.2-0.4-0.5-0.7-0.3-0.3-0.8-0.5-0.4-0.1-0.8-0.1-0.5 0-0.9 0.1-0.5 0.2-0.8 0.5-0.4 0.3-0.5 0.7-0.2 0.4-0.2 0.9v2.2h4.7zm0.7 14.9v4.6h4.4v-4.6zm10.1-11.5h-10.1v5.5h10.1z"/><path class="a" d="m275.9 5.5h3.6v7.6h7.6v3.4"/><path fill-rule="evenodd" class="b" d="m162.1 9.2l1.4 1h97q-0.4-0.2-0.7-0.5-0.2-0.3-0.5-0.7-0.2-0.3-0.4-0.7-0.2-0.4-0.2-0.8-0.2-0.5-0.1-1 0-0.5 0.2-1 0.2-0.5 0.6-0.9 0.3-0.4 0.8-0.7 0.5-0.3 1-0.5 0.6-0.1 1.1-0.1 0.6 0 1.1 0.2 0.6 0.2 1 0.6 0.2 0.1 0.3 0.3 0.2 0.1 0.3 0.3 0.1 0.2 0.2 0.4 0.1 0.2 0.1 0.4 0.1 0.3 0.1 0.5 0 0.3-0.1 0.5-0.1 0.3-0.2 0.5-0.1 0.2-0.3 0.4-0.2 0.2-0.4 0.4-0.2 0.1-0.5 0.2-0.2 0.1-0.5 0.1-0.2 0.1-0.5 0.1-0.2 0-0.4-0.2-0.2-0.2-0.2-0.4 0-0.2 0.2-0.4 0.2-0.1 0.4-0.1 0.1 0 0.3-0.1 0.1 0 0.3 0 0.1-0.1 0.2-0.2 0.1 0 0.3-0.2 0 0 0.1-0.1 0.1-0.2 0.1-0.3 0-0.1 0-0.2 0.1-0.1 0-0.3 0-0.1-0.1-0.2 0-0.1-0.1-0.2 0-0.1-0.1-0.2-0.1-0.1-0.2-0.2-0.3-0.2-0.7-0.3-0.4-0.2-0.8-0.2-0.4 0-0.7 0.1-0.4 0.1-0.8 0.3-0.3 0.2-0.5 0.5-0.2 0.3-0.3 0.6-0.2 0.3-0.2 0.7 0 0.4 0 0.7 0.1 0.4 0.3 0.8 0.2 0.3 0.5 0.6 0.2 0.3 0.6 0.6 0.3 0.2 0.6 0.4 0.2 0.1 0.4 0.2 0.2 0 0.4 0.1 0.2 0.1 0.4 0.1 0.2 0.1 0.4 0.1h6.2v-2.1c0-0.8 0.3-1.6 0.9-2.1 0.6-0.6 1.3-0.9 2.1-0.9 0.8 0 1.6 0.3 2.2 0.9 0.5 0.5 0.8 1.3 0.8 2.1v2.1h5.7v-5.2h6.5v6.5h-5.3v5.5h2.2c0.8 0 1.5 0.3 2.1 0.9 0.6 0.5 0.9 1.3 0.9 2.1 0 0.8-0.3 1.6-0.9 2.1-0.6 0.6-1.3 0.9-2.1 0.9h-2.2v6.1q0.1 0.2 0.1 0.4 0 0.2 0.1 0.4 0.1 0.3 0.2 0.5 0 0.2 0.1 0.4 0.2 0.3 0.4 0.7 0.3 0.3 0.6 0.5 0.3 0.3 0.7 0.5 0.3 0.2 0.7 0.3 0.3 0 0.7 0 0.4 0 0.7-0.1 0.3-0.2 0.6-0.4 0.3-0.2 0.5-0.5 0.2-0.4 0.3-0.8 0.2-0.3 0.1-0.7 0-0.4-0.1-0.8-0.1-0.4-0.4-0.7 0-0.1-0.1-0.2-0.1-0.1-0.2-0.2-0.1 0-0.2-0.1-0.2 0-0.3-0.1-0.1 0-0.2 0-0.2 0-0.3 0-0.1 0.1-0.2 0.1-0.1 0.1-0.2 0.2-0.1 0.1-0.2 0.2-0.1 0.1-0.1 0.3-0.1 0.1-0.1 0.2 0 0.2 0 0.3 0 0.1-0.1 0.3 0 0.1-0.1 0.1-0.1 0.1-0.2 0.2-0.1 0-0.2 0-0.1 0-0.2 0-0.1-0.1-0.2-0.2 0 0-0.1-0.1 0-0.1 0-0.2 0-0.3 0-0.6 0.1-0.2 0.2-0.5 0.1-0.2 0.2-0.4 0.2-0.2 0.3-0.4 0.2-0.2 0.5-0.3 0.2-0.2 0.4-0.2 0.3-0.1 0.5-0.1 0.3 0 0.5 0 0.3 0.1 0.5 0.2 0.2 0.1 0.3 0.2 0.2 0.1 0.4 0.3 0.2 0.1 0.3 0.3 0.3 0.4 0.5 1 0.2 0.5 0.2 1.1 0 0.5-0.1 1.1-0.2 0.5-0.5 1-0.2 0.4-0.5 0.7-0.3 0.3-0.7 0.5-0.4 0.2-0.8 0.3-0.4 0.1-0.8 0.1-0.1 0-0.2 0-0.1 0-0.2 0-0.1 0-0.2-0.1-0.2 0-0.3 0-0.3-0.1-0.7-0.3-0.4-0.1-0.7-0.4-0.4-0.2-0.7-0.5-0.2-0.3-0.5-0.6v97l1 1.4-1.6 2.4-1.7-2.4 1-1.4v-95.2h-5.9q-0.1 0-0.2 0 0 0-0.1-0.1 0 0 0-0.1 0 0-0.1-0.1v-10.5h-4.7v4.9q0 0.1 0 0.2 0 0-0.1 0.1 0 0-0.1 0 0 0-0.1 0h-4.9q-0.1 0.4-0.1 0.7 0 0.3 0.1 0.6 0 0.4 0.1 0.7 0.1 0.3 0.3 0.6 0.1 0.2 0.2 0.4 0.2 0.2 0.4 0.3 0.2 0.2 0.4 0.2 0.2 0.1 0.5 0.2 0.1 0 0.3-0.1 0.1 0 0.2-0.1 0.2-0.1 0.3-0.2 0.1-0.1 0.2-0.2 0-0.2 0.1-0.3 0-0.2 0-0.3 0-0.2-0.1-0.3 0-0.2-0.1-0.3-0.1-0.1-0.2-0.2-0.1 0-0.2-0.1-0.1 0-0.2 0-0.2 0-0.3 0 0 0-0.1 0 0 0.1-0.1 0.1 0 0.1 0 0.1-0.1 0.1-0.1 0.1 0 0 0 0.1 0 0 0 0.1 0 0 0 0 0 0.1 0 0.1 0.1 0.1 0.1 0.2 0 0.2-0.1 0.3-0.1 0-0.3 0-0.1 0-0.2-0.1 0-0.1-0.1-0.2 0-0.1 0-0.2-0.1-0.1-0.1-0.2 0.1-0.2 0.1-0.3 0-0.1 0.1-0.2 0.1-0.1 0.1-0.2 0.1-0.1 0.2-0.2 0.1-0.1 0.3-0.1 0.2-0.1 0.4-0.1 0.2 0.1 0.4 0.1 0.3 0.1 0.4 0.2 0.2 0.2 0.3 0.4 0.3 0.4 0.3 0.8 0.1 0.5-0.1 1-0.3 0.4-0.7 0.6-0.4 0.3-0.9 0.3-0.3 0-0.6-0.2-0.3-0.1-0.6-0.3-0.2-0.1-0.4-0.4-0.2-0.2-0.4-0.5-0.2-0.4-0.3-0.7-0.1-0.3-0.2-0.7 0-0.4 0-0.7 0-0.4 0-0.7-0.3 0-0.7 0-0.3 0-0.7-0.1-0.3-0.1-0.6-0.2-0.4-0.1-0.7-0.3-0.3-0.1-0.5-0.3-0.3-0.2-0.4-0.5-0.2-0.2-0.3-0.5-0.1-0.3-0.2-0.7 0-0.2 0.1-0.4 0.1-0.3 0.2-0.5 0.1-0.2 0.3-0.3 0.1-0.2 0.3-0.3 0.3-0.1 0.5-0.2 0.2 0 0.5 0 0.2 0 0.4 0.1 0.2 0.1 0.4 0.2 0.2 0.1 0.4 0.3 0.1 0.2 0.2 0.4 0.1 0.2 0.1 0.4 0 0.3-0.1 0.5 0 0.1-0.1 0.2-0.1 0.1-0.2 0.2-0.1 0.1-0.2 0.2-0.1 0-0.2 0.1-0.1 0-0.3 0-0.1 0-0.2 0-0.1 0-0.2-0.1-0.1 0-0.2-0.1-0.1-0.1-0.1-0.2 0-0.1 0.1-0.2 0-0.1 0.2-0.1 0.1 0 0.2 0 0 0 0.1 0.1 0 0 0 0 0.1 0 0.1 0 0.1-0.1 0.1-0.1 0.1 0 0.1 0 0.1 0 0.1-0.1 0 0 0.1-0.1 0 0 0-0.1 0.1-0.1 0.1-0.2-0.1-0.1-0.1-0.3 0-0.1-0.1-0.2-0.1-0.1-0.2-0.1-0.3-0.2-0.6-0.2-0.3-0.1-0.6 0.1-0.2 0.1-0.4 0.4-0.2 0.3-0.2 0.6 0.1 0.2 0.2 0.4 0.1 0.3 0.2 0.5 0.1 0.1 0.3 0.3 0.2 0.1 0.4 0.2 0.3 0.2 0.6 0.3 0.3 0.1 0.7 0.2 0.3 0 0.6 0 0.3 0 0.7 0v-4.9q0-0.1 0-0.1 0-0.1 0.1-0.1 0-0.1 0.1-0.1 0 0 0.1 0h4.7v-4.8h-10.3q0 0-0.1 0-0.1-0.1-0.1-0.1 0 0-0.1-0.1 0-0.1 0-0.1v-5.8h-95.3l-1.5 1-2.3-1.6zm124.3 1v-4h-4v4zm-1.8 12.1c0.6-0.1 1.2-0.4 1.5-0.8 0.4-0.4 0.7-1 0.7-1.6 0-0.6-0.3-1.2-0.7-1.6-0.3-0.5-0.9-0.7-1.5-0.8h-2.1v4.8zm-9 10.8h5.6v-10.2h-5.7zm0-10.8h5.7v-4.7h-5.7zm0-5.4h5.6v-5.5h-5.7zm-5.4 5.4h4.8v-4.7h-4.8zm0-5.4h4.8v-5.5h-4.8zm0-6.7h4.7v-2.1c0-0.6-0.3-1.2-0.7-1.6-0.5-0.4-1-0.6-1.6-0.6-0.6 0-1.2 0.2-1.7 0.6-0.4 0.4-0.7 1-0.7 1.6zm-5.2 12.8v4.6h4.5v-4.6zm-5.6-6h10.1v-5.5h-10.1z"/><path class="a" d="m15.2 370.9h-3.6v-7.6h-7.6v-3.4"/><path fill-rule="evenodd" class="b" d="m129.1 367.1l-1.4-1h-97q0.3 0.3 0.6 0.6 0.3 0.3 0.6 0.6 0.2 0.4 0.4 0.7 0.1 0.4 0.2 0.8 0.1 0.5 0.1 1.1-0.1 0.5-0.3 1-0.2 0.5-0.5 0.9-0.4 0.4-0.8 0.7-0.5 0.3-1 0.4-0.6 0.1-1.2 0.1-0.5 0-1.1-0.2-0.5-0.2-1-0.5-0.1-0.2-0.3-0.3-0.1-0.2-0.2-0.4-0.2-0.2-0.2-0.4-0.1-0.2-0.2-0.4 0-0.3 0-0.5 0-0.3 0.1-0.5 0.1-0.3 0.2-0.5 0.1-0.2 0.3-0.4 0.2-0.2 0.4-0.3 0.2-0.2 0.5-0.3 0.2-0.1 0.5-0.1 0.2-0.1 0.5 0 0.2 0 0.4 0.1 0.1 0.2 0.1 0.4 0 0.2-0.1 0.4-0.2 0.2-0.4 0.2-0.2 0-0.3 0-0.2 0-0.3 0.1-0.1 0-0.3 0.1-0.1 0.1-0.2 0.2-0.1 0.1-0.1 0.2-0.1 0.1-0.1 0.2-0.1 0.1-0.1 0.2 0 0.2 0.1 0.3 0 0.1 0 0.2 0.1 0.1 0.1 0.2 0.1 0.1 0.2 0.2 0.1 0.1 0.2 0.2 0.3 0.2 0.7 0.4 0.3 0.1 0.7 0.1 0.4 0 0.8-0.1 0.4-0.1 0.7-0.3 0.3-0.2 0.6-0.5 0.2-0.2 0.3-0.6 0.2-0.3 0.2-0.7 0-0.3-0.1-0.7-0.1-0.4-0.3-0.7-0.1-0.4-0.4-0.7-0.3-0.3-0.6-0.6-0.3-0.2-0.7-0.4-0.2-0.1-0.3-0.1-0.2-0.1-0.4-0.2-0.2-0.1-0.4-0.1-0.2-0.1-0.4-0.1h-6.2v2.2q0 0.5-0.3 1.1-0.2 0.5-0.6 0.9-0.5 0.4-1 0.6-0.6 0.2-1.1 0.2-0.6 0-1.2-0.2-0.5-0.2-0.9-0.6-0.5-0.4-0.7-0.9-0.2-0.6-0.2-1.1v-2.2h-5.7v5.2h-6.5v-6.5h5.3v-5.4h-2.2c-0.8 0-1.6-0.3-2.1-0.9-0.6-0.6-0.9-1.3-0.9-2.1 0-0.8 0.3-1.6 0.9-2.1 0.5-0.6 1.3-0.9 2.1-0.9h2.2v-6.1q-0.1-0.2-0.1-0.4-0.1-0.3-0.1-0.5-0.1-0.2-0.2-0.4-0.1-0.2-0.2-0.4-0.1-0.4-0.4-0.7-0.2-0.3-0.5-0.6-0.3-0.2-0.7-0.4-0.3-0.2-0.7-0.3-0.4-0.1-0.7 0-0.4 0-0.7 0.1-0.4 0.2-0.7 0.4-0.2 0.2-0.4 0.5-0.3 0.3-0.4 0.7-0.1 0.4 0 0.8 0 0.4 0.1 0.8 0.1 0.3 0.3 0.7 0.1 0.1 0.2 0.1 0.1 0.1 0.2 0.2 0.1 0.1 0.2 0.1 0.1 0.1 0.3 0.1 0.1 0 0.2 0 0.1 0 0.2 0 0.2 0 0.3-0.1 0.1-0.1 0.2-0.1 0.1-0.2 0.2-0.3 0-0.1 0.1-0.2 0-0.2 0.1-0.3 0-0.2 0-0.3 0-0.1 0-0.2 0.1-0.1 0.1-0.2 0.1-0.1 0.2-0.1 0.1-0.1 0.2-0.1 0.1 0 0.2 0.1 0.1 0 0.2 0.1 0.1 0.1 0.1 0.2 0.1 0.1 0.1 0.2 0 0.2-0.1 0.5 0 0.3-0.1 0.5-0.1 0.2-0.3 0.5-0.1 0.2-0.3 0.4-0.2 0.1-0.4 0.3-0.2 0.1-0.5 0.2-0.2 0-0.5 0-0.2 0-0.5 0-0.2-0.1-0.4-0.1-0.2-0.1-0.4-0.3-0.2-0.1-0.3-0.2-0.2-0.2-0.3-0.3-0.4-0.5-0.5-1-0.2-0.6-0.3-1.1 0-0.6 0.2-1.2 0.1-0.5 0.4-1 0.3-0.4 0.6-0.6 0.3-0.3 0.7-0.5 0.4-0.2 0.8-0.3 0.4-0.2 0.8-0.2 0.1 0 0.2 0 0.1 0.1 0.2 0.1 0.1 0 0.2 0 0.1 0 0.2 0 0.4 0.1 0.8 0.3 0.4 0.2 0.7 0.4 0.3 0.2 0.6 0.5 0.3 0.3 0.6 0.7v-97l-1-1.5 1.6-2.3 1.7 2.4-1 1.4v95.2h5.9q0.1 0 0.1 0 0.1 0 0.1 0.1 0.1 0 0.1 0.1 0 0 0 0.1v10.5h4.7v-4.9q0-0.1 0-0.1 0-0.1 0.1-0.1 0-0.1 0.1-0.1 0 0 0.1 0h4.9q0.1-0.4 0.1-0.7 0-0.3-0.1-0.6 0-0.4-0.1-0.7-0.1-0.3-0.3-0.6-0.1-0.2-0.2-0.4-0.2-0.1-0.4-0.3-0.2-0.1-0.4-0.2-0.2-0.1-0.4-0.2-0.4 0-0.6 0.2-0.3 0.2-0.4 0.4-0.2 0.3-0.2 0.6 0.1 0.3 0.2 0.6 0.1 0.1 0.2 0.2 0.1 0.1 0.2 0.1 0.1 0 0.3 0.1 0.1 0 0.2-0.1 0.1 0 0.1 0 0-0.1 0.1-0.1 0 0 0.1-0.1 0 0 0-0.1 0 0 0-0.1 0 0 0-0.1 0 0 0 0 0-0.1 0-0.1-0.1-0.1-0.1-0.2 0-0.2 0.1-0.3 0.1-0.1 0.3 0 0.1 0 0.2 0.1 0 0.1 0.1 0.2 0 0.1 0 0.2 0.1 0.1 0.1 0.3 0 0.1-0.1 0.2 0 0.1-0.1 0.2-0.1 0.1-0.1 0.2-0.1 0.1-0.2 0.2-0.1 0.1-0.3 0.1-0.2 0.1-0.4 0.1-0.2-0.1-0.4-0.1-0.2-0.1-0.4-0.3-0.2-0.1-0.3-0.3-0.1-0.2-0.2-0.4-0.1-0.2-0.1-0.5 0-0.2 0-0.5 0.1-0.2 0.2-0.4 0.1-0.2 0.3-0.4 0.1-0.1 0.3-0.3 0.2-0.1 0.5-0.2 0.2 0 0.4 0 0.3 0 0.6 0.1 0.3 0.1 0.6 0.3 0.3 0.2 0.5 0.4 0.2 0.3 0.3 0.6 0.2 0.3 0.3 0.7 0.1 0.3 0.2 0.7 0.1 0.3 0.1 0.7 0 0.3-0.1 0.7 0.4 0 0.7 0 0.4 0 0.7 0.1 0.3 0 0.7 0.2 0.3 0.1 0.6 0.2 0.3 0.2 0.5 0.4 0.3 0.2 0.5 0.4 0.2 0.3 0.3 0.6 0.1 0.3 0.1 0.6 0 0.3 0 0.5-0.1 0.2-0.2 0.4-0.2 0.2-0.3 0.4-0.2 0.2-0.4 0.3-0.2 0.1-0.5 0.1-0.2 0.1-0.4 0.1-0.3-0.1-0.5-0.1-0.2-0.1-0.4-0.3-0.2-0.1-0.3-0.2-0.2-0.2-0.2-0.4-0.1-0.2-0.1-0.5 0-0.2 0-0.4 0.1-0.1 0.1-0.2 0.1-0.2 0.2-0.2 0.1-0.1 0.2-0.2 0.1-0.1 0.3-0.1 0.1 0 0.2 0 0.1 0 0.2 0 0.1 0 0.2 0 0.1 0.1 0.2 0.1 0.1 0.1 0.1 0.2 0.1 0.2 0 0.3-0.1 0.1-0.2 0.1-0.1 0-0.2-0.1-0.1 0-0.1 0-0.1 0-0.1 0 0 0-0.1 0 0 0-0.1 0 0 0-0.1 0.1 0 0-0.1 0 0 0.1 0 0.1-0.1 0.1-0.1 0.1 0 0.2 0 0.3 0 0.1 0 0.2 0.1 0.1 0.2 0.2 0.1 0.1 0.2 0.2 0.1 0.1 0.2 0.1 0.2 0.1 0.3 0.1 0.2 0 0.3 0 0.2-0.1 0.3-0.1 0.1-0.1 0.2-0.2 0.2-0.1 0.2-0.2 0.1-0.2 0.2-0.3 0-0.2 0-0.3 0-0.3-0.1-0.5-0.1-0.2-0.3-0.4-0.1-0.2-0.3-0.3-0.2-0.2-0.4-0.3-0.3-0.1-0.6-0.2-0.3-0.1-0.6-0.2-0.3-0.1-0.7-0.1-0.3 0-0.6 0.1v4.9q0 0.1 0 0.1-0.1 0.1-0.1 0.1-0.1 0.1-0.1 0.1-0.1 0-0.1 0h-4.8v4.8h10.3q0.1 0 0.1 0 0.1 0 0.1 0.1 0.1 0 0.1 0.1 0 0 0 0.1v5.8h95.3l1.5-1 2.3 1.6zm-124.3-1v4h4v-4zm1.8-12.1c-0.6 0.1-1.2 0.3-1.6 0.8-0.4 0.4-0.6 1-0.6 1.6 0 0.6 0.2 1.2 0.6 1.6 0.4 0.5 1 0.7 1.6 0.8h2.1v-4.8zm9-10.8h-5.6v10.2h5.7zm0 10.8h-5.6v4.8h5.6zm0 5.4h-5.6v5.5h5.6zm5.4-5.4h-4.7v4.7h4.7zm0 5.4h-4.7v5.5h4.7zm0 6.7h-4.7v2.2q0 0.4 0.2 0.9 0.1 0.4 0.5 0.7 0.3 0.3 0.8 0.5 0.4 0.1 0.9 0.1 0.4 0 0.8-0.2 0.5-0.1 0.8-0.4 0.3-0.3 0.5-0.8 0.2-0.4 0.2-0.8zm5.1-12.8v-4.6h-4.4v4.6zm5.6 6h-10.1v5.5h10.1z"/><path class="a" d="m275.9 370.9h3.6v-7.6h7.6v-3.4"/><path class="a" d="m36.4 370.9h220.6"/><path class="a" d="m287.1 341v-304.3"/><path fill-rule="evenodd" class="b" d="m159.7 365.6l2.3-1.7 1.5 1h95.3v-5.7q0-0.1 0-0.2 0.1 0 0.1-0.1 0 0 0.1 0 0.1 0 0.1 0h10.4v-4.8h-4.8q-0.1 0-0.1-0.1-0.1 0-0.1 0 0-0.1-0.1-0.1 0-0.1 0-0.1v-5q-0.3 0-0.6 0-0.4 0-0.7 0-0.3 0.1-0.6 0.2-0.3 0.1-0.6 0.3-0.2 0.1-0.4 0.2-0.2 0.2-0.4 0.3-0.1 0.2-0.2 0.5-0.1 0.2-0.1 0.4 0 0.2 0 0.3 0.1 0.2 0.1 0.3 0.1 0.1 0.2 0.2 0.1 0.1 0.3 0.2 0.1 0.1 0.3 0.1 0.1 0 0.3 0 0.1 0 0.3 0 0.1-0.1 0.2-0.2 0.1 0 0.2-0.1 0.1-0.1 0.1-0.2 0.1-0.2 0.1-0.3 0-0.1 0-0.2-0.1-0.1-0.1-0.1 0-0.1-0.1-0.1 0 0-0.1-0.1 0 0-0.1 0 0 0 0 0-0.1-0.1-0.1-0.1-0.1 0-0.1 0.1 0 0-0.1 0 0 0-0.1 0 0 0.1-0.1 0-0.1 0-0.1 0-0.1 0-0.1-0.1 0 0-0.1-0.1 0 0 0-0.1 0-0.1 0-0.1 0.1-0.1 0.1-0.1 0.1-0.1 0.2-0.1 0.1-0.1 0.2-0.1 0.1 0 0.2 0 0.2 0 0.3 0.1 0.1 0 0.2 0.1 0.1 0 0.2 0.1 0.1 0.1 0.2 0.2 0.1 0.1 0.1 0.2 0.1 0.3 0.1 0.5 0 0.2-0.1 0.4-0.1 0.2-0.2 0.4-0.2 0.2-0.4 0.3-0.2 0.1-0.4 0.2-0.2 0.1-0.4 0.1-0.3 0-0.5 0-0.2-0.1-0.5-0.2-0.2-0.1-0.3-0.2-0.2-0.2-0.3-0.4-0.2-0.2-0.2-0.5-0.1-0.2-0.1-0.4 0-0.3 0.2-0.6 0.1-0.3 0.3-0.6 0.1-0.3 0.4-0.5 0.2-0.2 0.5-0.3 0.3-0.2 0.7-0.3 0.3-0.1 0.6-0.2 0.4 0 0.7-0.1 0.4 0 0.7 0.1 0-0.4 0-0.8 0-0.3 0-0.7 0.1-0.3 0.2-0.7 0.1-0.3 0.3-0.7 0.1-0.3 0.4-0.5 0.2-0.2 0.4-0.4 0.3-0.2 0.6-0.3 0.3-0.1 0.6-0.2 0.2 0 0.5 0.1 0.2 0.1 0.4 0.2 0.2 0.1 0.4 0.3 0.1 0.1 0.3 0.4 0.1 0.2 0.1 0.4 0 0.2 0 0.5 0 0.2-0.1 0.4 0 0.3-0.2 0.5-0.1 0.1-0.3 0.3-0.2 0.1-0.4 0.2-0.2 0.1-0.4 0.1-0.2 0-0.4-0.1-0.2 0-0.3-0.1-0.1-0.1-0.2-0.2-0.1-0.1-0.1-0.2-0.1-0.1-0.1-0.2-0.1-0.1-0.1-0.2 0-0.2 0-0.3 0.1-0.1 0.1-0.2 0-0.1 0.1-0.2 0.1-0.1 0.2-0.1 0.2 0 0.3 0.1 0.1 0 0.1 0.2 0 0.1-0.1 0.2 0 0 0 0.1 0 0 0 0 0 0.1 0 0.1 0 0.1 0 0.1 0 0.1 0 0.1 0.1 0.1 0.1 0.1 0.1 0 0.1 0.1 0 0 0.1 0 0.1 0.1 0.2 0.1 0.2-0.1 0.3-0.1 0.1 0 0.2-0.1 0.1-0.1 0.2-0.2 0.1-0.3 0.2-0.6 0-0.3-0.2-0.6-0.1-0.2-0.4-0.4-0.2-0.2-0.6-0.1-0.2 0-0.4 0.1-0.2 0.1-0.4 0.2-0.2 0.2-0.4 0.3-0.1 0.2-0.2 0.4-0.2 0.3-0.3 0.6-0.1 0.3-0.1 0.7-0.1 0.3-0.1 0.6 0 0.3 0.1 0.7h4.9q0.1 0 0.1 0 0.1 0 0.1 0.1 0.1 0 0.1 0.1 0 0 0 0.1v4.9h4.7v-10.5q0.1-0.1 0.1-0.1 0-0.1 0-0.1 0.1-0.1 0.1-0.1 0.1 0 0.2 0h5.9v-95.2l-1-1.4 1.7-2.4 1.6 2.3-1 1.5v97q0.3-0.3 0.5-0.6 0.3-0.3 0.7-0.6 0.3-0.2 0.7-0.4 0.4-0.1 0.7-0.2 0.1-0.1 0.3-0.1 0.1 0 0.2 0 0.1 0 0.2 0 0.1 0 0.2 0 0.4 0 0.8 0.1 0.4 0.1 0.8 0.3 0.4 0.2 0.7 0.5 0.3 0.3 0.5 0.6 0.3 0.5 0.5 1.1 0.1 0.5 0.1 1.1 0 0.6-0.2 1.1-0.2 0.5-0.5 1-0.1 0.2-0.3 0.3-0.2 0.2-0.4 0.3-0.1 0.1-0.3 0.2-0.2 0.1-0.5 0.1-0.2 0.1-0.5 0.1-0.2 0-0.5-0.1-0.2-0.1-0.4-0.2-0.3-0.1-0.5-0.3-0.1-0.2-0.3-0.4-0.1-0.2-0.2-0.5-0.1-0.2-0.2-0.5 0-0.2 0-0.5 0-0.1 0-0.2 0.1-0.1 0.1-0.2 0.1-0.1 0.2-0.1 0.1 0 0.2 0 0.1 0 0.2 0 0.1 0 0.2 0.1 0.1 0.1 0.1 0.2 0.1 0.1 0.1 0.2 0 0.2 0 0.3 0 0.2 0.1 0.3 0 0.1 0.1 0.3 0.1 0.1 0.2 0.2 0.1 0.1 0.2 0.1 0.1 0.1 0.2 0.1 0.1 0.1 0.3 0.1 0.1 0 0.2-0.1 0.1 0 0.3 0 0.1-0.1 0.2-0.2 0.1 0 0.2-0.1 0.1-0.1 0.1-0.2 0.3-0.3 0.4-0.7 0.1-0.4 0.1-0.8 0-0.4-0.1-0.7-0.1-0.4-0.3-0.8-0.2-0.3-0.5-0.5-0.3-0.2-0.6-0.4-0.3-0.1-0.7-0.1-0.4 0-0.7 0-0.4 0.1-0.8 0.3-0.3 0.2-0.6 0.5-0.3 0.2-0.6 0.6-0.2 0.3-0.4 0.6-0.1 0.2-0.1 0.4-0.1 0.3-0.2 0.5-0.1 0.2-0.1 0.4 0 0.2-0.1 0.4v6.1h2.2c0.8 0 1.5 0.3 2.1 0.9 0.6 0.6 0.9 1.3 0.9 2.1 0 0.8-0.3 1.6-0.9 2.1-0.6 0.6-1.3 0.9-2.1 0.9h-2.2v5.5h5.3v6.5h-6.5v-5.3h-5.7v2.2c0 0.8-0.3 1.5-0.8 2.1-0.6 0.6-1.4 0.9-2.2 0.9-0.8 0-1.5-0.3-2.1-0.9-0.6-0.6-0.9-1.3-0.9-2.1v-2.2h-6.2q-0.2 0.1-0.4 0.1-0.2 0.1-0.4 0.1-0.2 0.1-0.4 0.2-0.2 0.1-0.4 0.2-0.3 0.1-0.6 0.4-0.4 0.2-0.6 0.5-0.3 0.3-0.5 0.7-0.2 0.4-0.3 0.7 0 0.4 0 0.8 0 0.3 0.2 0.7 0.1 0.3 0.3 0.6 0.2 0.3 0.5 0.5 0.4 0.2 0.8 0.3 0.3 0.1 0.7 0 0.4 0 0.8-0.1 0.4-0.1 0.7-0.4 0.1 0 0.2-0.1 0.1-0.1 0.1-0.2 0.1-0.1 0.1-0.3 0.1-0.1 0.1-0.2 0.1-0.1 0-0.2 0-0.2 0-0.3 0-0.1-0.1-0.2-0.1-0.1-0.1-0.2-0.2-0.1-0.3-0.2-0.1-0.1-0.2-0.1-0.2-0.1-0.3-0.1-0.2 0-0.3 0-0.2 0-0.4-0.2-0.2-0.1-0.2-0.4 0-0.2 0.2-0.3 0.2-0.2 0.4-0.2 0.3 0 0.5 0 0.3 0.1 0.5 0.2 0.3 0.1 0.5 0.2 0.2 0.1 0.4 0.3 0.2 0.2 0.3 0.4 0.1 0.3 0.2 0.5 0.1 0.3 0.1 0.5 0 0.3-0.1 0.5 0 0.2-0.1 0.4-0.1 0.2-0.2 0.4-0.1 0.2-0.3 0.4-0.1 0.1-0.3 0.3-0.4 0.3-1 0.5-0.5 0.2-1.1 0.2-0.5 0.1-1.1-0.1-0.5-0.1-1-0.4-0.5-0.3-0.8-0.7-0.4-0.4-0.6-0.9-0.2-0.5-0.2-1-0.1-0.6 0.1-1.1 0-0.4 0.2-0.8 0.2-0.3 0.4-0.7 0.3-0.3 0.5-0.6 0.3-0.3 0.7-0.6h-97l-1.4 1zm122.6 0.6v4h4v-4zm0-12.2v4.8h2.2c0.6 0 1.1-0.3 1.5-0.8 0.4-0.4 0.6-1 0.6-1.6 0-0.6-0.2-1.1-0.6-1.6-0.4-0.4-0.9-0.7-1.5-0.8zm-6.9-0.6h5.6v-10.2h-5.6zm0 5.4h5.7v-4.8h-5.6zm0 6.1h5.6v-5.5h-5.6zm-5.4-6h4.8v-4.8h-4.8zm0 6.1h4.9v-5.5h-4.8zm0 3.4c0.1 0.6 0.3 1.2 0.8 1.6 0.4 0.4 1 0.6 1.6 0.6 0.6 0 1.2-0.2 1.6-0.6 0.5-0.4 0.7-1 0.8-1.6v-2.1h-4.8zm-0.7-14.9v-4.7h-4.4v4.7zm-10.1 11.4h10.1v-5.4h-10.1z"/><path class="b" d="m9.6 137c-0.4 0-0.8-0.4-0.8-0.9 0-0.5 0.4-0.8 0.8-0.8 0.5 0 0.9 0.3 0.9 0.8 0 0.5-0.4 0.9-0.9 0.9z"/><path class="b" d="m9.6 142.7c-0.4 0-0.8-0.4-0.8-0.8 0-0.5 0.4-0.9 0.8-0.9 0.5 0 0.9 0.4 0.9 0.9 0 0.4-0.4 0.8-0.9 0.8z"/><path class="b" d="m9.6 148.5c-0.4 0-0.8-0.4-0.8-0.9 0-0.5 0.4-0.8 0.8-0.8 0.5 0 0.9 0.3 0.9 0.8 0 0.5-0.4 0.9-0.9 0.9z"/><path class="b" d="m9.6 154.2c-0.4 0-0.8-0.4-0.8-0.9 0-0.4 0.4-0.8 0.8-0.8 0.5 0 0.9 0.4 0.9 0.8 0 0.5-0.4 0.9-0.9 0.9z"/><path class="b" d="m9.6 160c-0.4 0-0.8-0.4-0.8-0.9 0-0.5 0.4-0.9 0.8-0.9 0.5 0 0.9 0.4 0.9 0.9 0 0.5-0.4 0.9-0.9 0.9z"/><path class="b" d="m9.6 165.7c-0.4 0-0.8-0.4-0.8-0.9 0-0.4 0.4-0.8 0.8-0.8 0.5 0 0.9 0.4 0.9 0.8 0 0.5-0.4 0.9-0.9 0.9z"/><path class="b" d="m9.6 171.4c-0.4 0-0.8-0.3-0.8-0.8 0-0.5 0.4-0.9 0.8-0.9 0.5 0 0.9 0.4 0.9 0.9 0 0.5-0.4 0.8-0.9 0.8z"/><path class="b" d="m9.6 177.2c-0.4 0-0.8-0.4-0.8-0.9 0-0.4 0.4-0.8 0.8-0.8 0.5 0 0.9 0.4 0.9 0.8 0 0.5-0.4 0.9-0.9 0.9z"/><path class="b" d="m9.6 182.9c-0.4 0-0.8-0.3-0.8-0.8 0-0.5 0.4-0.9 0.8-0.9 0.5 0 0.9 0.4 0.9 0.9 0 0.5-0.4 0.8-0.9 0.8z"/><path class="b" d="m9.6 188.7c-0.4 0-0.8-0.4-0.8-0.9 0-0.4 0.4-0.8 0.8-0.8 0.5 0 0.9 0.4 0.9 0.8 0 0.5-0.4 0.9-0.9 0.9z"/><path class="b" d="m9.6 194.4c-0.4 0-0.8-0.3-0.8-0.8 0-0.5 0.4-0.9 0.8-0.9 0.5 0 0.9 0.4 0.9 0.9 0 0.5-0.4 0.8-0.9 0.8z"/><path class="b" d="m9.6 200.2c-0.4 0-0.8-0.4-0.8-0.9 0-0.4 0.4-0.8 0.8-0.8 0.5 0 0.9 0.4 0.9 0.8 0 0.5-0.4 0.9-0.9 0.9z"/><path class="b" d="m9.6 205.9c-0.4 0-0.8-0.3-0.8-0.8 0-0.5 0.4-0.9 0.8-0.9 0.5 0 0.9 0.4 0.9 0.9 0 0.5-0.4 0.8-0.9 0.8z"/><path class="b" d="m9.6 211.7c-0.4 0-0.8-0.4-0.8-0.9 0-0.4 0.4-0.8 0.8-0.8 0.5 0 0.9 0.4 0.9 0.8 0 0.5-0.4 0.9-0.9 0.9z"/><path class="b" d="m9.6 217.4c-0.4 0-0.8-0.4-0.8-0.8 0-0.5 0.4-0.9 0.8-0.9 0.5 0 0.9 0.4 0.9 0.9 0 0.4-0.4 0.8-0.9 0.8z"/><path class="b" d="m9.6 223.2c-0.4 0-0.8-0.4-0.8-0.9 0-0.5 0.4-0.8 0.8-0.8 0.5 0 0.9 0.3 0.9 0.8 0 0.5-0.4 0.9-0.9 0.9z"/><path class="b" d="m9.6 228.9c-0.4 0-0.8-0.4-0.8-0.8 0-0.5 0.4-0.9 0.8-0.9 0.5 0 0.9 0.4 0.9 0.9 0 0.4-0.4 0.8-0.9 0.8z"/><path class="b" d="m9.6 234.7c-0.4 0-0.8-0.4-0.8-0.9 0-0.5 0.4-0.8 0.8-0.8 0.5 0 0.9 0.3 0.9 0.8 0 0.5-0.4 0.9-0.9 0.9z"/><path class="b" d="m9.6 240.4c-0.4 0-0.8-0.4-0.8-0.8 0-0.5 0.4-0.9 0.8-0.9 0.5 0 0.9 0.4 0.9 0.9 0 0.4-0.4 0.8-0.9 0.8z"/><path class="b" d="m281.5 137c-0.5 0-0.9-0.4-0.9-0.9 0-0.5 0.4-0.8 0.9-0.8 0.5 0 0.9 0.3 0.9 0.8 0 0.5-0.4 0.9-0.9 0.9z"/><path class="b" d="m281.5 142.7c-0.5 0-0.9-0.4-0.9-0.8 0-0.5 0.4-0.9 0.9-0.9 0.5 0 0.9 0.4 0.9 0.9 0 0.4-0.4 0.8-0.9 0.8z"/><path class="b" d="m281.5 148.5c-0.5 0-0.9-0.4-0.9-0.9 0-0.5 0.4-0.8 0.9-0.8 0.5 0 0.9 0.3 0.9 0.8 0 0.5-0.4 0.9-0.9 0.9z"/><path class="b" d="m281.5 154.2c-0.5 0-0.9-0.4-0.9-0.9 0-0.4 0.4-0.8 0.9-0.8 0.5 0 0.9 0.4 0.9 0.8 0 0.5-0.4 0.9-0.9 0.9z"/><path class="b" d="m281.5 160c-0.5 0-0.9-0.4-0.9-0.9 0-0.5 0.4-0.9 0.9-0.9 0.5 0 0.9 0.4 0.9 0.9 0 0.5-0.4 0.9-0.9 0.9z"/><path class="b" d="m281.5 165.7c-0.5 0-0.9-0.4-0.9-0.9 0-0.4 0.4-0.8 0.9-0.8 0.5 0 0.9 0.4 0.9 0.8 0 0.5-0.4 0.9-0.9 0.9z"/><path class="b" d="m281.5 171.4c-0.5 0-0.9-0.3-0.9-0.8 0-0.5 0.4-0.9 0.9-0.9 0.5 0 0.9 0.4 0.9 0.9 0 0.5-0.4 0.8-0.9 0.8z"/><path class="b" d="m281.5 177.2c-0.5 0-0.9-0.4-0.9-0.9 0-0.4 0.4-0.8 0.9-0.8 0.5 0 0.9 0.4 0.9 0.8 0 0.5-0.4 0.9-0.9 0.9z"/><path class="b" d="m281.5 182.9c-0.5 0-0.9-0.3-0.9-0.8 0-0.5 0.4-0.9 0.9-0.9 0.5 0 0.9 0.4 0.9 0.9 0 0.5-0.4 0.8-0.9 0.8z"/><path class="b" d="m281.5 188.7c-0.5 0-0.9-0.4-0.9-0.9 0-0.4 0.4-0.8 0.9-0.8 0.5 0 0.9 0.4 0.9 0.8 0 0.5-0.4 0.9-0.9 0.9z"/><path class="b" d="m281.5 194.4c-0.5 0-0.9-0.3-0.9-0.8 0-0.5 0.4-0.9 0.9-0.9 0.5 0 0.9 0.4 0.9 0.9 0 0.5-0.4 0.8-0.9 0.8z"/><path class="b" d="m281.5 200.2c-0.5 0-0.9-0.4-0.9-0.9 0-0.4 0.4-0.8 0.9-0.8 0.5 0 0.9 0.4 0.9 0.8 0 0.5-0.4 0.9-0.9 0.9z"/><path class="b" d="m281.5 205.9c-0.5 0-0.9-0.3-0.9-0.8 0-0.5 0.4-0.9 0.9-0.9 0.5 0 0.9 0.4 0.9 0.9 0 0.5-0.4 0.8-0.9 0.8z"/><path class="b" d="m281.5 211.7c-0.5 0-0.9-0.4-0.9-0.9 0-0.4 0.4-0.8 0.9-0.8 0.5 0 0.9 0.4 0.9 0.8 0 0.5-0.4 0.9-0.9 0.9z"/><path class="b" d="m281.5 217.4c-0.5 0-0.9-0.4-0.9-0.8 0-0.5 0.4-0.9 0.9-0.9 0.5 0 0.9 0.4 0.9 0.9 0 0.4-0.4 0.8-0.9 0.8z"/><path class="b" d="m281.5 223.2c-0.5 0-0.9-0.4-0.9-0.9 0-0.5 0.4-0.8 0.9-0.8 0.5 0 0.9 0.3 0.9 0.8 0 0.5-0.4 0.9-0.9 0.9z"/><path class="b" d="m281.5 228.9c-0.5 0-0.9-0.4-0.9-0.8 0-0.5 0.4-0.9 0.9-0.9 0.5 0 0.9 0.4 0.9 0.9 0 0.4-0.4 0.8-0.9 0.8z"/><path class="b" d="m281.5 234.7c-0.5 0-0.9-0.4-0.9-0.9 0-0.5 0.4-0.8 0.9-0.8 0.5 0 0.9 0.3 0.9 0.8 0 0.5-0.4 0.9-0.9 0.9z"/><path class="b" d="m281.5 240.4c-0.5 0-0.9-0.4-0.9-0.8 0-0.5 0.4-0.9 0.9-0.9 0.5 0 0.9 0.4 0.9 0.9 0 0.4-0.4 0.8-0.9 0.8z"/><path class="b" d="m133.8 11.9c-0.5 0-0.9-0.4-0.9-0.9 0-0.5 0.4-0.9 0.9-0.9 0.5 0 0.9 0.4 0.9 0.9 0 0.5-0.4 0.9-0.9 0.9z"/><path class="b" d="m139.6 11.9c-0.5 0-0.9-0.4-0.9-0.9 0-0.5 0.4-0.9 0.9-0.9 0.4 0 0.8 0.4 0.8 0.9 0 0.5-0.4 0.9-0.8 0.9z"/><path class="b" d="m145.3 11.9c-0.5 0-0.9-0.4-0.9-0.9 0-0.5 0.4-0.9 0.9-0.9 0.5 0 0.8 0.4 0.8 0.9 0 0.5-0.3 0.9-0.8 0.9z"/><path class="b" d="m151 11.9c-0.4 0-0.8-0.4-0.8-0.9 0-0.5 0.4-0.9 0.8-0.9 0.5 0 0.9 0.4 0.9 0.9 0 0.5-0.4 0.9-0.9 0.9z"/><path class="b" d="m156.8 11.9c-0.5 0-0.9-0.4-0.9-0.9 0-0.5 0.4-0.9 0.9-0.9 0.5 0 0.8 0.4 0.8 0.9 0 0.5-0.3 0.9-0.8 0.9z"/><path class="b" d="m133.8 366.4c-0.5 0.1-0.9-0.3-0.9-0.8 0-0.5 0.4-0.9 0.9-0.9 0.5 0 0.9 0.4 0.9 0.9 0 0.5-0.4 0.9-0.9 0.9z"/><path class="b" d="m139.6 366.4c-0.5 0.1-0.9-0.3-0.9-0.8 0-0.5 0.4-0.9 0.9-0.9 0.4 0 0.8 0.4 0.8 0.9 0 0.5-0.4 0.9-0.8 0.9z"/><path class="b" d="m145.3 366.4c-0.5 0.1-0.9-0.3-0.9-0.8 0-0.5 0.4-0.9 0.9-0.9 0.5 0 0.8 0.4 0.8 0.9 0 0.5-0.3 0.9-0.8 0.9z"/><path class="b" d="m151 366.4c-0.4 0.1-0.8-0.3-0.8-0.8 0-0.5 0.4-0.9 0.8-0.9 0.5 0 0.9 0.4 0.9 0.9 0 0.5-0.4 0.9-0.9 0.9z"/><path class="b" d="m156.8 366.4c-0.5 0.1-0.9-0.3-0.9-0.8 0-0.5 0.4-0.9 0.9-0.9 0.5 0 0.8 0.4 0.8 0.9 0 0.5-0.3 0.9-0.8 0.9z"/></svg>