<svg id="Layer_1" data-name="Layer 1" xmlns="http://www.w3.org/2000/svg" viewBox="0 0 300 450">
  <defs>
    <style>.cls-1{fill:#F0B558;}</style>
  </defs>
  <path class="cls-1" d="M150.28,6.66H7v437H293V6.66Zm141,217.28V441.83H8.7V8.5H291.3Z" />
  <path class="cls-1"
    d="M288.52,440.45a.93.93,0,0,0,.6-.23.82.82,0,0,0,.24-.57.8.8,0,0,0-.24-.56.91.91,0,0,0-1.2,0,.77.77,0,0,0-.25.56.81.81,0,0,0,.25.57A.93.93,0,0,0,288.52,440.45Z" />
  <path class="cls-1" d="M152.8,438.85a.8.8,0,1,0,.85.8A.83.83,0,0,0,152.8,438.85Z" />
  <path class="cls-1" d="M150,438.85a.8.8,0,1,0,.85.8A.83.83,0,0,0,150,438.85Z" />
  <path class="cls-1" d="M155.63,438.85a.8.8,0,1,0,.85.8A.83.83,0,0,0,155.63,438.85Z" />
  <path class="cls-1" d="M169.76,438.85a.8.8,0,1,0,.85.8A.83.83,0,0,0,169.76,438.85Z" />
  <path class="cls-1" d="M144.32,438.85a.8.8,0,1,0,.85.8A.83.83,0,0,0,144.32,438.85Z" />
  <path class="cls-1" d="M158.45,438.85a.8.8,0,1,0,.85.8A.83.83,0,0,0,158.45,438.85Z" />
  <path class="cls-1" d="M220.66,438.85a.8.8,0,1,0,.85.8A.83.83,0,0,0,220.66,438.85Z" />
  <path class="cls-1" d="M166.94,438.85a.8.8,0,1,0,.85.8A.83.83,0,0,0,166.94,438.85Z" />
  <path class="cls-1" d="M161.29,438.85a.8.8,0,1,0,0,1.6.8.8,0,1,0,0-1.6Z" />
  <path class="cls-1" d="M147.15,438.85a.8.8,0,1,0,0,1.6.8.8,0,1,0,0-1.6Z" />
  <path class="cls-1" d="M127.36,438.85a.8.8,0,1,0,.85.8A.83.83,0,0,0,127.36,438.85Z" />
  <path class="cls-1" d="M130.18,438.85a.8.8,0,1,0,.85.8A.83.83,0,0,0,130.18,438.85Z" />
  <path class="cls-1" d="M124.53,438.85a.8.8,0,1,0,.85.8A.83.83,0,0,0,124.53,438.85Z" />
  <path class="cls-1" d="M118.87,438.85a.8.8,0,1,0,.85.8A.83.83,0,0,0,118.87,438.85Z" />
  <path class="cls-1" d="M121.7,438.85a.8.8,0,1,0,.85.8A.83.83,0,0,0,121.7,438.85Z" />
  <path class="cls-1" d="M138.67,438.85a.8.8,0,1,0,.85.8A.83.83,0,0,0,138.67,438.85Z" />
  <path class="cls-1" d="M135.84,438.85a.8.8,0,1,0,0,1.6.8.8,0,1,0,0-1.6Z" />
  <path class="cls-1" d="M133,438.85a.8.8,0,1,0,.85.8A.83.83,0,0,0,133,438.85Z" />
  <path class="cls-1" d="M141.49,438.85a.8.8,0,1,0,.85.8A.83.83,0,0,0,141.49,438.85Z" />
  <path class="cls-1" d="M206.52,438.85a.8.8,0,1,0,.85.8A.83.83,0,0,0,206.52,438.85Z" />
  <path class="cls-1" d="M203.69,438.85a.8.8,0,1,0,.85.8A.83.83,0,0,0,203.69,438.85Z" />
  <path class="cls-1" d="M209.35,438.85a.8.8,0,1,0,.85.8A.83.83,0,0,0,209.35,438.85Z" />
  <path class="cls-1" d="M200.87,438.85a.8.8,0,1,0,0,1.6.8.8,0,1,0,0-1.6Z" />
  <path class="cls-1" d="M215,438.85a.8.8,0,1,0,.86.8A.84.84,0,0,0,215,438.85Z" />
  <path class="cls-1" d="M217.83,438.85a.8.8,0,1,0,.85.8A.83.83,0,0,0,217.83,438.85Z" />
  <path class="cls-1" d="M212.18,438.85a.8.8,0,1,0,0,1.6.8.8,0,1,0,0-1.6Z" />
  <path class="cls-1" d="M198,438.85a.8.8,0,1,0,.85.8A.83.83,0,0,0,198,438.85Z" />
  <path class="cls-1" d="M175.42,438.85a.8.8,0,1,0,.85.8A.83.83,0,0,0,175.42,438.85Z" />
  <path class="cls-1" d="M178.25,438.85a.8.8,0,1,0,.85.8A.83.83,0,0,0,178.25,438.85Z" />
  <path class="cls-1" d="M195.22,438.85a.8.8,0,1,0,0,1.6.8.8,0,1,0,0-1.6Z" />
  <path class="cls-1" d="M183.91,438.85a.8.8,0,1,0,0,1.6.8.8,0,1,0,0-1.6Z" />
  <path class="cls-1" d="M172.6,438.85a.8.8,0,1,0,0,1.6.8.8,0,1,0,0-1.6Z" />
  <path class="cls-1" d="M181.07,438.85a.8.8,0,1,0,.85.8A.83.83,0,0,0,181.07,438.85Z" />
  <path class="cls-1" d="M192.38,438.85a.8.8,0,1,0,.85.8A.83.83,0,0,0,192.38,438.85Z" />
  <path class="cls-1" d="M186.73,438.85a.8.8,0,1,0,.85.8A.83.83,0,0,0,186.73,438.85Z" />
  <path class="cls-1" d="M189.56,438.85a.8.8,0,1,0,.85.8A.83.83,0,0,0,189.56,438.85Z" />
  <path class="cls-1" d="M164.11,438.85a.8.8,0,1,0,.85.8A.83.83,0,0,0,164.11,438.85Z" />
  <path class="cls-1" d="M48.19,438.85a.8.8,0,1,0,.85.8A.83.83,0,0,0,48.19,438.85Z" />
  <path class="cls-1" d="M45.36,438.85a.8.8,0,1,0,.85.8A.83.83,0,0,0,45.36,438.85Z" />
  <path class="cls-1" d="M42.53,438.85a.8.8,0,1,0,.85.8A.83.83,0,0,0,42.53,438.85Z" />
  <path class="cls-1" d="M62.33,438.85a.8.8,0,1,0,.85.8A.83.83,0,0,0,62.33,438.85Z" />
  <path class="cls-1" d="M39.71,438.85a.8.8,0,1,0,.85.8A.83.83,0,0,0,39.71,438.85Z" />
  <path class="cls-1" d="M56.68,438.85a.8.8,0,1,0,0,1.6.8.8,0,1,0,0-1.6Z" />
  <path class="cls-1" d="M51,438.85a.8.8,0,1,0,.85.8A.83.83,0,0,0,51,438.85Z" />
  <path class="cls-1" d="M59.5,438.85a.8.8,0,1,0,.85.8A.83.83,0,0,0,59.5,438.85Z" />
  <path class="cls-1" d="M53.84,438.85a.8.8,0,1,0,.85.8A.83.83,0,0,0,53.84,438.85Z" />
  <path class="cls-1" d="M36.88,438.85a.8.8,0,1,0,.85.8A.83.83,0,0,0,36.88,438.85Z" />
  <path class="cls-1" d="M19.92,438.85a.8.8,0,1,0,0,1.6.8.8,0,1,0,0-1.6Z" />
  <path class="cls-1" d="M34.05,438.85a.8.8,0,1,0,.85.8A.83.83,0,0,0,34.05,438.85Z" />
  <path class="cls-1" d="M17.09,438.85a.8.8,0,1,0,.85.8A.83.83,0,0,0,17.09,438.85Z" />
  <path class="cls-1" d="M14.26,438.85a.8.8,0,1,0,.85.8A.83.83,0,0,0,14.26,438.85Z" />
  <path class="cls-1" d="M22.74,438.85a.8.8,0,1,0,.86.8A.84.84,0,0,0,22.74,438.85Z" />
  <path class="cls-1" d="M25.57,438.85a.8.8,0,1,0,.85.8A.83.83,0,0,0,25.57,438.85Z" />
  <path class="cls-1" d="M31.23,438.85a.8.8,0,1,0,0,1.6.8.8,0,1,0,0-1.6Z" />
  <path class="cls-1" d="M28.4,438.85a.8.8,0,1,0,.85.8A.83.83,0,0,0,28.4,438.85Z" />
  <path class="cls-1" d="M70.81,438.85a.8.8,0,1,0,.85.8A.83.83,0,0,0,70.81,438.85Z" />
  <path class="cls-1" d="M90.6,438.85a.8.8,0,1,0,.85.8A.83.83,0,0,0,90.6,438.85Z" />
  <path class="cls-1" d="M99.08,438.85a.8.8,0,1,0,.85.8A.83.83,0,0,0,99.08,438.85Z" />
  <path class="cls-1" d="M93.43,438.85a.8.8,0,1,0,.85.8A.83.83,0,0,0,93.43,438.85Z" />
  <path class="cls-1" d="M101.91,438.85a.8.8,0,1,0,.85.8A.83.83,0,0,0,101.91,438.85Z" />
  <path class="cls-1" d="M96.26,438.85a.8.8,0,1,0,0,1.6.8.8,0,1,0,0-1.6Z" />
  <path class="cls-1" d="M113.22,438.85a.8.8,0,1,0,.85.8A.83.83,0,0,0,113.22,438.85Z" />
  <path class="cls-1" d="M65.15,438.85a.8.8,0,1,0,.85.8A.83.83,0,0,0,65.15,438.85Z" />
  <path class="cls-1" d="M107.57,438.85a.8.8,0,1,0,0,1.6.8.8,0,1,0,0-1.6Z" />
  <path class="cls-1" d="M104.74,438.85a.8.8,0,1,0,.85.8A.83.83,0,0,0,104.74,438.85Z" />
  <path class="cls-1" d="M73.64,438.85a.8.8,0,1,0,0,1.6.8.8,0,1,0,0-1.6Z" />
  <path class="cls-1" d="M116.05,438.85a.8.8,0,1,0,.85.8A.83.83,0,0,0,116.05,438.85Z" />
  <path class="cls-1" d="M68,438.85a.8.8,0,1,0,0,1.6.8.8,0,1,0,0-1.6Z" />
  <path class="cls-1" d="M76.46,438.85a.8.8,0,1,0,.85.8A.83.83,0,0,0,76.46,438.85Z" />
  <path class="cls-1" d="M82.12,438.85a.8.8,0,1,0,.85.8A.83.83,0,0,0,82.12,438.85Z" />
  <path class="cls-1" d="M85,438.85a.8.8,0,1,0,0,1.6.8.8,0,1,0,0-1.6Z" />
  <path class="cls-1" d="M79.29,438.85a.8.8,0,1,0,.85.8A.83.83,0,0,0,79.29,438.85Z" />
  <path class="cls-1" d="M87.77,438.85a.8.8,0,1,0,.85.8A.83.83,0,0,0,87.77,438.85Z" />
  <path class="cls-1" d="M110.39,438.85a.8.8,0,1,0,.85.8A.83.83,0,0,0,110.39,438.85Z" />
  <path class="cls-1" d="M268.72,438.85a.8.8,0,1,0,.85.8A.83.83,0,0,0,268.72,438.85Z" />
  <path class="cls-1" d="M265.9,438.85a.8.8,0,1,0,.85.8A.83.83,0,0,0,265.9,438.85Z" />
  <path class="cls-1" d="M263.07,438.85a.8.8,0,1,0,.85.8A.83.83,0,0,0,263.07,438.85Z" />
  <path class="cls-1" d="M260.24,438.85a.8.8,0,1,0,.85.8A.83.83,0,0,0,260.24,438.85Z" />
  <path class="cls-1" d="M271.55,438.85a.8.8,0,1,0,.85.8A.83.83,0,0,0,271.55,438.85Z" />
  <path class="cls-1" d="M277.21,438.85a.8.8,0,1,0,0,1.6.8.8,0,1,0,0-1.6Z" />
  <path class="cls-1" d="M285.69,438.85a.8.8,0,1,0,.85.8A.83.83,0,0,0,285.69,438.85Z" />
  <path class="cls-1" d="M282.86,438.85a.8.8,0,1,0,.85.8A.83.83,0,0,0,282.86,438.85Z" />
  <path class="cls-1" d="M274.38,438.85a.8.8,0,1,0,.85.8A.83.83,0,0,0,274.38,438.85Z" />
  <path class="cls-1" d="M280,438.85a.8.8,0,1,0,.85.8A.83.83,0,0,0,280,438.85Z" />
  <path class="cls-1" d="M223.49,438.85a.8.8,0,1,0,0,1.6.8.8,0,1,0,0-1.6Z" />
  <path class="cls-1" d="M257.41,438.85a.8.8,0,1,0,.85.8A.83.83,0,0,0,257.41,438.85Z" />
  <path class="cls-1" d="M232,438.85a.8.8,0,1,0,.85.8A.83.83,0,0,0,232,438.85Z" />
  <path class="cls-1" d="M229.14,438.85a.8.8,0,1,0,.85.8A.83.83,0,0,0,229.14,438.85Z" />
  <path class="cls-1" d="M237.62,438.85a.8.8,0,1,0,.85.8A.83.83,0,0,0,237.62,438.85Z" />
  <path class="cls-1" d="M234.8,438.85a.8.8,0,1,0,0,1.6.8.8,0,1,0,0-1.6Z" />
  <path class="cls-1" d="M226.31,438.85a.8.8,0,1,0,.85.8A.83.83,0,0,0,226.31,438.85Z" />
  <path class="cls-1" d="M254.59,438.85a.8.8,0,1,0,.85.8A.83.83,0,0,0,254.59,438.85Z" />
  <path class="cls-1" d="M243.28,438.85a.8.8,0,1,0,.85.8A.83.83,0,0,0,243.28,438.85Z" />
  <path class="cls-1" d="M240.45,438.85a.8.8,0,1,0,.85.8A.83.83,0,0,0,240.45,438.85Z" />
  <path class="cls-1" d="M248.93,438.85a.8.8,0,1,0,.85.8A.83.83,0,0,0,248.93,438.85Z" />
  <path class="cls-1" d="M251.76,438.85a.8.8,0,1,0,.85.8A.83.83,0,0,0,251.76,438.85Z" />
  <path class="cls-1" d="M246.1,438.85a.8.8,0,1,0,.85.8A.83.83,0,0,0,246.1,438.85Z" />
  <path class="cls-1"
    d="M10.83,439.09a.77.77,0,0,0-.25.56.79.79,0,0,0,.25.57.93.93,0,0,0,.6.23.91.91,0,0,0,.6-.23.79.79,0,0,0,.25-.57.77.77,0,0,0-.25-.56A.92.92,0,0,0,10.83,439.09Z" />
  <ellipse class="cls-1" cx="11.43" cy="216" rx="0.85" ry="0.8" />
  <path class="cls-1" d="M11.43,212.54a.8.8,0,1,0,.85.8A.83.83,0,0,0,11.43,212.54Z" />
  <ellipse class="cls-1" cx="11.43" cy="218.66" rx="0.85" ry="0.8" />
  <path class="cls-1" d="M11.43,225.86a.79.79,0,1,0,.85.79A.82.82,0,0,0,11.43,225.86Z" />
  <ellipse class="cls-1" cx="11.43" cy="221.33" rx="0.85" ry="0.8" />
  <path class="cls-1" d="M11.43,223.19a.8.8,0,1,0,.85.8A.83.83,0,0,0,11.43,223.19Z" />
  <path class="cls-1" d="M11.43,209.88a.8.8,0,1,0,.85.79A.82.82,0,0,0,11.43,209.88Z" />
  <path class="cls-1" d="M11.43,201.89a.8.8,0,1,0,.85.8A.83.83,0,0,0,11.43,201.89Z" />
  <ellipse class="cls-1" cx="11.43" cy="200.03" rx="0.85" ry="0.8" />
  <path class="cls-1" d="M11.43,207.22a.8.8,0,1,0,.85.79A.82.82,0,0,0,11.43,207.22Z" />
  <ellipse class="cls-1" cx="11.43" cy="205.35" rx="0.85" ry="0.8" />
  <path class="cls-1" d="M11.43,236.5a.8.8,0,1,0,.85.8A.83.83,0,0,0,11.43,236.5Z" />
  <path class="cls-1" d="M11.43,247.15a.8.8,0,1,0,.85.8A.83.83,0,0,0,11.43,247.15Z" />
  <path class="cls-1" d="M11.43,244.49a.8.8,0,1,0,.85.8A.83.83,0,0,0,11.43,244.49Z" />
  <path class="cls-1" d="M11.43,249.82a.8.8,0,1,0,.85.79A.82.82,0,0,0,11.43,249.82Z" />
  <path class="cls-1" d="M11.43,241.83a.8.8,0,1,0,.85.79A.83.83,0,0,0,11.43,241.83Z" />
  <ellipse class="cls-1" cx="11.43" cy="378.41" rx="0.85" ry="0.8" />
  <path class="cls-1" d="M11.43,233.84a.8.8,0,1,0,.85.8A.83.83,0,0,0,11.43,233.84Z" />
  <ellipse class="cls-1" cx="11.43" cy="239.96" rx="0.85" ry="0.8" />
  <path class="cls-1" d="M11.43,228.52a.8.8,0,1,0,.85.79A.82.82,0,0,0,11.43,228.52Z" />
  <path class="cls-1" d="M11.43,231.18a.8.8,0,1,0,.85.79A.82.82,0,0,0,11.43,231.18Z" />
  <path class="cls-1" d="M11.43,196.57a.8.8,0,1,0,.85.79A.82.82,0,0,0,11.43,196.57Z" />
  <ellipse class="cls-1" cx="11.43" cy="157.43" rx="0.85" ry="0.8" />
  <path class="cls-1" d="M11.43,375a.8.8,0,1,0,.85.8A.83.83,0,0,0,11.43,375Z" />
  <path class="cls-1" d="M11.43,146a.8.8,0,1,0,.85.8A.83.83,0,0,0,11.43,146Z" />
  <path class="cls-1" d="M11.43,151.31a.8.8,0,1,0,.85.79A.82.82,0,0,0,11.43,151.31Z" />
  <ellipse class="cls-1" cx="11.43" cy="160.09" rx="0.85" ry="0.8" />
  <ellipse class="cls-1" cx="11.43" cy="162.75" rx="0.85" ry="0.8" />
  <path class="cls-1" d="M11.43,138a.8.8,0,1,0,.85.8A.83.83,0,0,0,11.43,138Z" />
  <path class="cls-1" d="M11.43,135.33a.8.8,0,1,0,.85.8A.83.83,0,0,0,11.43,135.33Z" />
  <ellipse class="cls-1" cx="11.43" cy="144.12" rx="0.85" ry="0.8" />
  <path class="cls-1" d="M11.43,132.67a.8.8,0,1,0,.85.79A.83.83,0,0,0,11.43,132.67Z" />
  <path class="cls-1" d="M11.43,164.62a.8.8,0,1,0,.85.8A.83.83,0,0,0,11.43,164.62Z" />
  <path class="cls-1" d="M11.43,140.66a.8.8,0,1,0,.85.79A.82.82,0,0,0,11.43,140.66Z" />
  <path class="cls-1" d="M11.43,169.94a.8.8,0,1,0,.85.8A.83.83,0,0,0,11.43,169.94Z" />
  <path class="cls-1" d="M11.43,180.59a.8.8,0,1,0,.85.8A.83.83,0,0,0,11.43,180.59Z" />
  <path class="cls-1" d="M11.43,185.92a.8.8,0,1,0,.85.79A.82.82,0,0,0,11.43,185.92Z" />
  <ellipse class="cls-1" cx="11.43" cy="184.05" rx="0.85" ry="0.8" />
  <ellipse class="cls-1" cx="11.43" cy="192.04" rx="0.85" ry="0.8" />
  <ellipse class="cls-1" cx="11.43" cy="189.38" rx="0.85" ry="0.8" />
  <path class="cls-1" d="M11.43,167.28a.8.8,0,1,0,.85.8A.83.83,0,0,0,11.43,167.28Z" />
  <ellipse class="cls-1" cx="11.43" cy="194.7" rx="0.85" ry="0.8" />
  <ellipse class="cls-1" cx="11.43" cy="173.4" rx="0.85" ry="0.8" />
  <ellipse class="cls-1" cx="11.43" cy="178.72" rx="0.85" ry="0.8" />
  <path class="cls-1" d="M11.43,175.27a.8.8,0,1,0,.85.79A.82.82,0,0,0,11.43,175.27Z" />
  <path class="cls-1" d="M11.43,148.64a.8.8,0,1,0,.85.8A.83.83,0,0,0,11.43,148.64Z" />
  <path class="cls-1" d="M11.43,292.41a.8.8,0,1,0,.85.8A.83.83,0,0,0,11.43,292.41Z" />
  <path class="cls-1" d="M11.43,289.75a.8.8,0,1,0,.85.8A.83.83,0,0,0,11.43,289.75Z" />
  <ellipse class="cls-1" cx="11.43" cy="373.08" rx="0.85" ry="0.8" />
  <path class="cls-1" d="M11.43,287.09a.8.8,0,1,0,.85.79A.82.82,0,0,0,11.43,287.09Z" />
  <path class="cls-1" d="M11.43,284.43a.8.8,0,1,0,.85.79A.82.82,0,0,0,11.43,284.43Z" />
  <ellipse class="cls-1" cx="11.43" cy="301.2" rx="0.85" ry="0.8" />
  <path class="cls-1" d="M11.43,303.06a.8.8,0,1,0,.85.8A.83.83,0,0,0,11.43,303.06Z" />
  <ellipse class="cls-1" cx="11.43" cy="295.87" rx="0.85" ry="0.8" />
  <path class="cls-1" d="M11.43,308.39a.8.8,0,1,0,.85.79A.82.82,0,0,0,11.43,308.39Z" />
  <ellipse class="cls-1" cx="11.43" cy="282.56" rx="0.85" ry="0.8" />
  <ellipse class="cls-1" cx="11.43" cy="298.54" rx="0.85" ry="0.8" />
  <path class="cls-1" d="M11.43,305.73a.8.8,0,1,0,.85.79A.82.82,0,0,0,11.43,305.73Z" />
  <ellipse class="cls-1" cx="11.43" cy="261.26" rx="0.85" ry="0.8" />
  <ellipse class="cls-1" cx="11.43" cy="258.6" rx="0.85" ry="0.8" />
  <ellipse class="cls-1" cx="11.43" cy="279.9" rx="0.85" ry="0.8" />
  <ellipse class="cls-1" cx="11.43" cy="255.93" rx="0.85" ry="0.8" />
  <path class="cls-1" d="M11.43,252.48a.8.8,0,1,0,.85.79A.82.82,0,0,0,11.43,252.48Z" />
  <path class="cls-1" d="M11.43,263.13a.8.8,0,1,0,.85.79A.82.82,0,0,0,11.43,263.13Z" />
  <ellipse class="cls-1" cx="11.43" cy="277.24" rx="0.85" ry="0.8" />
  <path class="cls-1" d="M11.43,273.78a.8.8,0,1,0,.85.8A.82.82,0,0,0,11.43,273.78Z" />
  <path class="cls-1" d="M11.43,268.45a.8.8,0,1,0,.85.8A.83.83,0,0,0,11.43,268.45Z" />
  <path class="cls-1" d="M11.43,265.79a.8.8,0,1,0,.85.8A.83.83,0,0,0,11.43,265.79Z" />
  <path class="cls-1" d="M11.43,271.11a.8.8,0,1,0,.85.8A.83.83,0,0,0,11.43,271.11Z" />
  <ellipse class="cls-1" cx="11.43" cy="130.8" rx="0.85" ry="0.8" />
  <path class="cls-1" d="M11.43,351a.8.8,0,1,0,.85.8A.82.82,0,0,0,11.43,351Z" />
  <ellipse class="cls-1" cx="11.43" cy="357.11" rx="0.85" ry="0.8" />
  <path class="cls-1" d="M11.43,353.65a.8.8,0,1,0,.85.8A.82.82,0,0,0,11.43,353.65Z" />
  <path class="cls-1" d="M11.43,348.32a.8.8,0,1,0,.85.8A.83.83,0,0,0,11.43,348.32Z" />
  <path class="cls-1" d="M11.43,345.66a.8.8,0,1,0,.85.8A.83.83,0,0,0,11.43,345.66Z" />
  <ellipse class="cls-1" cx="11.43" cy="359.77" rx="0.85" ry="0.8" />
  <path class="cls-1" d="M11.43,369.62a.8.8,0,1,0,.85.8A.83.83,0,0,0,11.43,369.62Z" />
  <path class="cls-1" d="M11.43,367a.8.8,0,1,0,.85.8A.83.83,0,0,0,11.43,367Z" />
  <path class="cls-1" d="M11.43,361.64a.8.8,0,1,0,.85.79A.82.82,0,0,0,11.43,361.64Z" />
  <ellipse class="cls-1" cx="11.43" cy="343.8" rx="0.85" ry="0.8" />
  <path class="cls-1" d="M11.43,311.05a.8.8,0,1,0,.85.79A.82.82,0,0,0,11.43,311.05Z" />
  <path class="cls-1" d="M11.43,364.3a.8.8,0,1,0,.85.79A.82.82,0,0,0,11.43,364.3Z" />
  <ellipse class="cls-1" cx="11.43" cy="322.5" rx="0.85" ry="0.8" />
  <ellipse class="cls-1" cx="11.43" cy="319.84" rx="0.85" ry="0.8" />
  <path class="cls-1" d="M11.43,324.36a.8.8,0,1,0,.85.8A.83.83,0,0,0,11.43,324.36Z" />
  <ellipse class="cls-1" cx="11.43" cy="317.17" rx="0.85" ry="0.8" />
  <path class="cls-1" d="M11.43,313.71a.8.8,0,1,0,.85.8A.83.83,0,0,0,11.43,313.71Z" />
  <path class="cls-1" d="M11.43,327a.8.8,0,1,0,.85.8A.83.83,0,0,0,11.43,327Z" />
  <ellipse class="cls-1" cx="11.43" cy="338.47" rx="0.85" ry="0.8" />
  <path class="cls-1" d="M11.43,335a.8.8,0,1,0,.85.8A.83.83,0,0,0,11.43,335Z" />
  <path class="cls-1" d="M11.43,329.69a.8.8,0,1,0,.85.8A.82.82,0,0,0,11.43,329.69Z" />
  <path class="cls-1" d="M11.43,340.34a.8.8,0,1,0,.85.79A.82.82,0,0,0,11.43,340.34Z" />
  <ellipse class="cls-1" cx="11.43" cy="333.15" rx="0.85" ry="0.8" />
  <path class="cls-1" d="M11.43,377.62a.8.8,0,1,0,.85.79A.82.82,0,0,0,11.43,377.62Z" />
  <path class="cls-1" d="M11.43,382.94a.8.8,0,1,0,.85.8A.83.83,0,0,0,11.43,382.94Z" />
  <path class="cls-1" d="M11.43,380.28a.8.8,0,1,0,.85.8A.83.83,0,0,0,11.43,380.28Z" />
  <path class="cls-1" d="M11.43,425.54a.8.8,0,1,0,.85.8A.83.83,0,0,0,11.43,425.54Z" />
  <ellipse class="cls-1" cx="11.43" cy="431.66" rx="0.85" ry="0.8" />
  <path class="cls-1" d="M11.43,428.2a.8.8,0,1,0,.85.8A.83.83,0,0,0,11.43,428.2Z" />
  <path class="cls-1" d="M11.43,422.88a.8.8,0,1,0,.85.79A.82.82,0,0,0,11.43,422.88Z" />
  <path class="cls-1" d="M11.43,420.22a.8.8,0,1,0,.85.79A.82.82,0,0,0,11.43,420.22Z" />
  <ellipse class="cls-1" cx="11.43" cy="434.33" rx="0.85" ry="0.8" />
  <path class="cls-1" d="M11.43,436.19a.8.8,0,1,0,.85.8A.83.83,0,0,0,11.43,436.19Z" />
  <ellipse class="cls-1" cx="11.43" cy="418.35" rx="0.85" ry="0.8" />
  <path class="cls-1" d="M11.43,385.61a.8.8,0,1,0,.85.79A.82.82,0,0,0,11.43,385.61Z" />
  <path class="cls-1" d="M11.43,438.85a.8.8,0,1,0,.85.8A.83.83,0,0,0,11.43,438.85Z" />
  <ellipse class="cls-1" cx="11.43" cy="397.05" rx="0.85" ry="0.8" />
  <ellipse class="cls-1" cx="11.43" cy="394.39" rx="0.85" ry="0.8" />
  <path class="cls-1" d="M11.43,398.92a.8.8,0,1,0,.85.79A.82.82,0,0,0,11.43,398.92Z" />
  <ellipse class="cls-1" cx="11.43" cy="391.73" rx="0.85" ry="0.8" />
  <path class="cls-1" d="M11.43,388.27a.8.8,0,1,0,.85.8A.82.82,0,0,0,11.43,388.27Z" />
  <path class="cls-1" d="M11.43,401.58a.8.8,0,1,0,.85.79A.83.83,0,0,0,11.43,401.58Z" />
  <ellipse class="cls-1" cx="11.43" cy="413.03" rx="0.85" ry="0.8" />
  <path class="cls-1" d="M11.43,409.57a.8.8,0,1,0,.85.79A.82.82,0,0,0,11.43,409.57Z" />
  <path class="cls-1" d="M11.43,404.24a.8.8,0,1,0,.85.8A.83.83,0,0,0,11.43,404.24Z" />
  <path class="cls-1" d="M11.43,414.89a.8.8,0,1,0,.85.8A.83.83,0,0,0,11.43,414.89Z" />
  <ellipse class="cls-1" cx="11.43" cy="407.7" rx="0.85" ry="0.8" />
  <path class="cls-1" d="M11.43,154a.8.8,0,1,0,.85.79A.82.82,0,0,0,11.43,154Z" />
  <path class="cls-1" d="M11.43,68.77a.8.8,0,1,0,.85.8A.83.83,0,0,0,11.43,68.77Z" />
  <path class="cls-1" d="M11.43,44.81a.8.8,0,1,0,.85.79A.82.82,0,0,0,11.43,44.81Z" />
  <path class="cls-1" d="M11.43,47.47a.8.8,0,1,0,.85.8A.83.83,0,0,0,11.43,47.47Z" />
  <path class="cls-1" d="M11.43,39.48a.8.8,0,1,0,.85.8A.83.83,0,0,0,11.43,39.48Z" />
  <path class="cls-1" d="M11.43,42.15a.8.8,0,1,0,.85.79A.82.82,0,0,0,11.43,42.15Z" />
  <path class="cls-1" d="M11.43,58.12a.8.8,0,1,0,.85.8A.83.83,0,0,0,11.43,58.12Z" />
  <ellipse class="cls-1" cx="11.43" cy="61.58" rx="0.85" ry="0.8" />
  <path class="cls-1" d="M11.43,66.11a.8.8,0,1,0,.85.8A.82.82,0,0,0,11.43,66.11Z" />
  <ellipse class="cls-1" cx="11.43" cy="56.26" rx="0.85" ry="0.8" />
  <path class="cls-1" d="M11.43,52.8a.8.8,0,1,0,.85.79A.82.82,0,0,0,11.43,52.8Z" />
  <path class="cls-1" d="M11.43,36.82a.8.8,0,1,0,.85.8A.83.83,0,0,0,11.43,36.82Z" />
  <ellipse class="cls-1" cx="11.43" cy="50.93" rx="0.85" ry="0.8" />
  <path class="cls-1" d="M11.43,18.19a.8.8,0,1,0,.85.79A.82.82,0,0,0,11.43,18.19Z" />
  <path class="cls-1" d="M11.43,15.52a.8.8,0,1,0,.85.8A.83.83,0,0,0,11.43,15.52Z" />
  <path class="cls-1" d="M11.43,12.86a.8.8,0,1,0,.85.8A.83.83,0,0,0,11.43,12.86Z" />
  <ellipse class="cls-1" cx="11.43" cy="21.64" rx="0.85" ry="0.8" />
  <path class="cls-1" d="M11.43,127.35a.8.8,0,1,0,.85.79A.82.82,0,0,0,11.43,127.35Z" />
  <path class="cls-1" d="M11.43,31.49a.8.8,0,1,0,.85.8A.83.83,0,0,0,11.43,31.49Z" />
  <path class="cls-1" d="M11.43,28.83a.8.8,0,1,0,.85.8A.83.83,0,0,0,11.43,28.83Z" />
  <path class="cls-1" d="M11.43,34.16a.8.8,0,1,0,.85.8A.83.83,0,0,0,11.43,34.16Z" />
  <path class="cls-1" d="M11.43,23.51a.8.8,0,1,0,.85.79A.83.83,0,0,0,11.43,23.51Z" />
  <ellipse class="cls-1" cx="11.43" cy="26.97" rx="0.85" ry="0.8" />
  <path class="cls-1" d="M11.43,63.45a.8.8,0,1,0,.85.79A.82.82,0,0,0,11.43,63.45Z" />
  <path class="cls-1" d="M11.43,108.71a.8.8,0,1,0,.85.79A.83.83,0,0,0,11.43,108.71Z" />
  <path class="cls-1" d="M11.43,106a.8.8,0,1,0,.85.8A.83.83,0,0,0,11.43,106Z" />
  <path class="cls-1" d="M11.43,98.06a.8.8,0,1,0,.85.79A.82.82,0,0,0,11.43,98.06Z" />
  <path class="cls-1" d="M11.43,111.37a.8.8,0,1,0,.85.8A.83.83,0,0,0,11.43,111.37Z" />
  <ellipse class="cls-1" cx="11.43" cy="104.18" rx="0.85" ry="0.8" />
  <path class="cls-1" d="M11.43,100.72a.8.8,0,1,0,.85.79A.82.82,0,0,0,11.43,100.72Z" />
  <path class="cls-1" d="M11.43,124.68a.8.8,0,1,0,.85.8A.83.83,0,0,0,11.43,124.68Z" />
  <path class="cls-1" d="M11.43,114a.8.8,0,1,0,.85.8A.83.83,0,0,0,11.43,114Z" />
  <path class="cls-1" d="M11.43,122a.8.8,0,1,0,.85.8A.82.82,0,0,0,11.43,122Z" />
  <path class="cls-1" d="M11.43,116.69a.8.8,0,1,0,.85.8A.83.83,0,0,0,11.43,116.69Z" />
  <ellipse class="cls-1" cx="11.43" cy="120.15" rx="0.85" ry="0.8" />
  <ellipse class="cls-1" cx="11.43" cy="77.55" rx="0.85" ry="0.8" />
  <path class="cls-1" d="M11.43,82.08a.8.8,0,1,0,.85.8A.83.83,0,0,0,11.43,82.08Z" />
  <path class="cls-1" d="M11.43,84.74a.8.8,0,1,0,.85.8A.83.83,0,0,0,11.43,84.74Z" />
  <path class="cls-1" d="M11.43,79.42a.8.8,0,1,0,.85.8A.83.83,0,0,0,11.43,79.42Z" />
  <ellipse class="cls-1" cx="11.43" cy="72.23" rx="0.85" ry="0.8" />
  <path class="cls-1" d="M11.43,95.4a.8.8,0,1,0,.85.79A.82.82,0,0,0,11.43,95.4Z" />
  <path class="cls-1" d="M11.43,92.73a.8.8,0,1,0,.85.8A.83.83,0,0,0,11.43,92.73Z" />
  <ellipse class="cls-1" cx="11.43" cy="74.89" rx="0.85" ry="0.8" />
  <path class="cls-1" d="M11.43,87.41a.8.8,0,1,0,.85.8A.83.83,0,0,0,11.43,87.41Z" />
  <ellipse class="cls-1" cx="11.43" cy="90.87" rx="0.85" ry="0.8" />
  <path class="cls-1"
    d="M10.83,10.43a.77.77,0,0,0-.25.57.78.78,0,0,0,.25.56.88.88,0,0,0,.6.23.85.85,0,0,0,.6-.23.78.78,0,0,0,.25-.56.77.77,0,0,0-.25-.57A.94.94,0,0,0,10.83,10.43Z" />
  <path class="cls-1" d="M87.77,11.79a.8.8,0,1,0-.85-.79A.83.83,0,0,0,87.77,11.79Z" />
  <path class="cls-1" d="M82.12,11.79a.8.8,0,1,0-.85-.79A.83.83,0,0,0,82.12,11.79Z" />
  <path class="cls-1" d="M85,11.79a.8.8,0,1,0,0-1.59.8.8,0,1,0,0,1.59Z" />
  <path class="cls-1" d="M79.29,11.79a.8.8,0,1,0-.85-.79A.83.83,0,0,0,79.29,11.79Z" />
  <path class="cls-1" d="M76.46,11.79a.8.8,0,1,0-.84-.79A.82.82,0,0,0,76.46,11.79Z" />
  <path class="cls-1" d="M73.64,11.79a.8.8,0,1,0,0-1.59.8.8,0,1,0,0,1.59Z" />
  <path class="cls-1" d="M70.81,11.79A.8.8,0,1,0,70,11,.83.83,0,0,0,70.81,11.79Z" />
  <path class="cls-1" d="M90.6,11.79a.8.8,0,1,0-.85-.79A.83.83,0,0,0,90.6,11.79Z" />
  <path class="cls-1" d="M101.91,11.79a.8.8,0,1,0-.85-.79A.83.83,0,0,0,101.91,11.79Z" />
  <path class="cls-1" d="M104.74,11.79a.8.8,0,1,0-.85-.79A.83.83,0,0,0,104.74,11.79Z" />
  <path class="cls-1" d="M93.43,11.79a.8.8,0,1,0-.85-.79A.83.83,0,0,0,93.43,11.79Z" />
  <path class="cls-1" d="M99.08,11.79a.8.8,0,1,0-.85-.79A.83.83,0,0,0,99.08,11.79Z" />
  <path class="cls-1" d="M96.26,11.79a.8.8,0,1,0-.85-.79A.82.82,0,0,0,96.26,11.79Z" />
  <path class="cls-1" d="M36.88,11.79A.8.8,0,1,0,36,11,.82.82,0,0,0,36.88,11.79Z" />
  <path class="cls-1" d="M68,11.79a.8.8,0,1,0-.85-.79A.83.83,0,0,0,68,11.79Z" />
  <path class="cls-1" d="M39.71,11.79a.8.8,0,1,0-.85-.79A.83.83,0,0,0,39.71,11.79Z" />
  <path class="cls-1" d="M48.19,11.79a.8.8,0,1,0-.85-.79A.83.83,0,0,0,48.19,11.79Z" />
  <path class="cls-1" d="M45.36,11.79a.8.8,0,1,0-.85-.79A.83.83,0,0,0,45.36,11.79Z" />
  <path class="cls-1" d="M34.05,11.79A.8.8,0,1,0,33.2,11,.83.83,0,0,0,34.05,11.79Z" />
  <path class="cls-1" d="M107.57,11.79a.8.8,0,1,0-.85-.79A.82.82,0,0,0,107.57,11.79Z" />
  <path class="cls-1" d="M42.53,11.79a.8.8,0,1,0-.84-.79A.83.83,0,0,0,42.53,11.79Z" />
  <path class="cls-1" d="M59.5,11.79a.8.8,0,1,0-.85-.79A.83.83,0,0,0,59.5,11.79Z" />
  <path class="cls-1" d="M51,11.79a.8.8,0,1,0-.85-.79A.83.83,0,0,0,51,11.79Z" />
  <path class="cls-1" d="M65.15,11.79a.8.8,0,1,0-.84-.79A.82.82,0,0,0,65.15,11.79Z" />
  <path class="cls-1" d="M62.33,11.79a.8.8,0,1,0-.85-.79A.83.83,0,0,0,62.33,11.79Z" />
  <path class="cls-1" d="M53.84,11.79A.8.8,0,1,0,53,11,.83.83,0,0,0,53.84,11.79Z" />
  <path class="cls-1" d="M56.67,11.79a.8.8,0,1,0-.85-.79A.83.83,0,0,0,56.67,11.79Z" />
  <path class="cls-1" d="M31.23,11.79a.8.8,0,1,0-.85-.79A.82.82,0,0,0,31.23,11.79Z" />
  <path class="cls-1" d="M110.39,11.79a.8.8,0,1,0-.85-.79A.83.83,0,0,0,110.39,11.79Z" />
  <path class="cls-1" d="M246.1,11.79a.8.8,0,1,0-.84-.79A.83.83,0,0,0,246.1,11.79Z" />
  <path class="cls-1" d="M251.76,11.79a.8.8,0,1,0,0-1.59.8.8,0,1,0,0,1.59Z" />
  <path class="cls-1" d="M237.62,11.79a.8.8,0,1,0-.85-.79A.83.83,0,0,0,237.62,11.79Z" />
  <path class="cls-1" d="M254.59,11.79a.8.8,0,1,0-.85-.79A.83.83,0,0,0,254.59,11.79Z" />
  <path class="cls-1" d="M243.28,11.79a.8.8,0,1,0-.85-.79A.83.83,0,0,0,243.28,11.79Z" />
  <path class="cls-1" d="M240.45,11.79a.8.8,0,1,0-.84-.79A.82.82,0,0,0,240.45,11.79Z" />
  <path class="cls-1" d="M248.93,11.79a.8.8,0,1,0-.85-.79A.83.83,0,0,0,248.93,11.79Z" />
  <path class="cls-1" d="M268.72,11.79a.8.8,0,1,0-.84-.79A.82.82,0,0,0,268.72,11.79Z" />
  <path class="cls-1" d="M265.9,11.79a.8.8,0,1,0-.85-.79A.83.83,0,0,0,265.9,11.79Z" />
  <path class="cls-1" d="M271.55,11.79a.8.8,0,1,0-.85-.79A.83.83,0,0,0,271.55,11.79Z" />
  <path class="cls-1" d="M260.24,11.79a.8.8,0,1,0-.85-.79A.83.83,0,0,0,260.24,11.79Z" />
  <path class="cls-1" d="M263.07,11.79a.8.8,0,1,0-.85-.79A.83.83,0,0,0,263.07,11.79Z" />
  <path class="cls-1" d="M257.41,11.79a.8.8,0,1,0-.84-.79A.83.83,0,0,0,257.41,11.79Z" />
  <path class="cls-1" d="M234.8,11.79A.8.8,0,1,0,234,11,.82.82,0,0,0,234.8,11.79Z" />
  <path class="cls-1" d="M121.7,11.79a.8.8,0,1,0-.85-.79A.83.83,0,0,0,121.7,11.79Z" />
  <path class="cls-1" d="M232,11.79a.8.8,0,1,0-.85-.79A.83.83,0,0,0,232,11.79Z" />
  <path class="cls-1" d="M124.53,11.79a.8.8,0,1,0,0-1.59.8.8,0,1,0,0,1.59Z" />
  <path class="cls-1" d="M127.36,11.79a.8.8,0,1,0-.85-.79A.83.83,0,0,0,127.36,11.79Z" />
  <path class="cls-1" d="M113.22,11.79a.8.8,0,1,0,0-1.59.8.8,0,1,0,0,1.59Z" />
  <path class="cls-1" d="M116.05,11.79a.8.8,0,1,0-.85-.79A.83.83,0,0,0,116.05,11.79Z" />
  <path class="cls-1" d="M118.87,11.79A.8.8,0,1,0,118,11,.83.83,0,0,0,118.87,11.79Z" />
  <path class="cls-1" d="M130.18,11.79a.8.8,0,1,0-.84-.79A.83.83,0,0,0,130.18,11.79Z" />
  <path class="cls-1" d="M138.67,11.79a.8.8,0,1,0-.85-.79A.83.83,0,0,0,138.67,11.79Z" />
  <path class="cls-1" d="M144.32,11.79a.8.8,0,1,0-.85-.79A.83.83,0,0,0,144.32,11.79Z" />
  <path class="cls-1" d="M141.49,11.79a.8.8,0,1,0-.84-.79A.82.82,0,0,0,141.49,11.79Z" />
  <path class="cls-1" d="M135.84,11.79a.8.8,0,1,0,0-1.59.8.8,0,1,0,0,1.59Z" />
  <path class="cls-1" d="M133,11.79a.8.8,0,1,0-.85-.79A.83.83,0,0,0,133,11.79Z" />
  <path class="cls-1" d="M155.63,11.79a.8.8,0,1,0-.85-.79A.83.83,0,0,0,155.63,11.79Z" />
  <path class="cls-1" d="M175.42,11.79a.8.8,0,1,0-.85-.79A.83.83,0,0,0,175.42,11.79Z" />
  <path class="cls-1" d="M178.25,11.79a.8.8,0,1,0-.85-.79A.83.83,0,0,0,178.25,11.79Z" />
  <path class="cls-1" d="M181.07,11.79a.8.8,0,1,0-.84-.79A.82.82,0,0,0,181.07,11.79Z" />
  <path class="cls-1" d="M172.6,11.79a.8.8,0,1,0-.85-.79A.82.82,0,0,0,172.6,11.79Z" />
  <path class="cls-1" d="M169.76,11.79a.8.8,0,1,0-.84-.79A.83.83,0,0,0,169.76,11.79Z" />
  <path class="cls-1" d="M183.9,11.79a.8.8,0,1,0-.85-.79A.83.83,0,0,0,183.9,11.79Z" />
  <path class="cls-1" d="M192.38,11.79a.8.8,0,1,0-.84-.79A.82.82,0,0,0,192.38,11.79Z" />
  <path class="cls-1" d="M195.22,11.79a.8.8,0,1,0-.85-.79A.82.82,0,0,0,195.22,11.79Z" />
  <path class="cls-1" d="M166.94,11.79a.8.8,0,1,0-.85-.79A.83.83,0,0,0,166.94,11.79Z" />
  <path class="cls-1" d="M189.56,11.79a.8.8,0,1,0-.85-.79A.83.83,0,0,0,189.56,11.79Z" />
  <path class="cls-1" d="M186.73,11.79a.8.8,0,1,0-.85-.79A.83.83,0,0,0,186.73,11.79Z" />
  <path class="cls-1" d="M164.11,11.79a.8.8,0,1,0-.84-.79A.82.82,0,0,0,164.11,11.79Z" />
  <path class="cls-1" d="M152.8,11.79A.8.8,0,1,0,152,11,.82.82,0,0,0,152.8,11.79Z" />
  <path class="cls-1" d="M158.45,11.79a.8.8,0,1,0-.84-.79A.83.83,0,0,0,158.45,11.79Z" />
  <path class="cls-1" d="M277.21,11.79a.8.8,0,1,0,0-1.59.8.8,0,1,0,0,1.59Z" />
  <path class="cls-1" d="M161.28,11.79a.8.8,0,1,0-.84-.79A.83.83,0,0,0,161.28,11.79Z" />
  <path class="cls-1" d="M149.13,11a.85.85,0,1,0,.85-.8A.83.83,0,0,0,149.13,11Z" />
  <path class="cls-1" d="M147.15,11.79a.8.8,0,1,0-.85-.79A.82.82,0,0,0,147.15,11.79Z" />
  <path class="cls-1" d="M198,11.79a.8.8,0,1,0-.85-.79A.83.83,0,0,0,198,11.79Z" />
  <path class="cls-1" d="M282.86,11.79A.8.8,0,1,0,282,11,.83.83,0,0,0,282.86,11.79Z" />
  <path class="cls-1" d="M280,11.79a.8.8,0,1,0-.84-.79A.82.82,0,0,0,280,11.79Z" />
  <path class="cls-1" d="M285.69,11.79a.8.8,0,1,0-.85-.79A.83.83,0,0,0,285.69,11.79Z" />
  <path class="cls-1" d="M223.49,11.79a.8.8,0,1,0-.85-.79A.82.82,0,0,0,223.49,11.79Z" />
  <path class="cls-1" d="M226.31,11.79a.8.8,0,1,0-.85-.79A.83.83,0,0,0,226.31,11.79Z" />
  <path class="cls-1" d="M217.83,11.79A.8.8,0,1,0,217,11,.83.83,0,0,0,217.83,11.79Z" />
  <path class="cls-1" d="M28.4,11.79a.8.8,0,1,0-.85-.79A.83.83,0,0,0,28.4,11.79Z" />
  <path class="cls-1" d="M220.66,11.79a.8.8,0,1,0-.85-.79A.83.83,0,0,0,220.66,11.79Z" />
  <path class="cls-1" d="M215,11.79a.8.8,0,1,0-.85-.79A.83.83,0,0,0,215,11.79Z" />
  <path class="cls-1" d="M212.18,11.79a.8.8,0,1,0,0-1.59.8.8,0,1,0,0,1.59Z" />
  <path class="cls-1" d="M19.92,11.79a.8.8,0,1,0-.85-.79A.82.82,0,0,0,19.92,11.79Z" />
  <path class="cls-1" d="M22.74,11.79a.8.8,0,1,0-.85-.79A.83.83,0,0,0,22.74,11.79Z" />
  <path class="cls-1" d="M25.57,11.79a.8.8,0,1,0-.84-.79A.82.82,0,0,0,25.57,11.79Z" />
  <path class="cls-1" d="M209.35,11.79a.8.8,0,1,0-.85-.79A.83.83,0,0,0,209.35,11.79Z" />
  <path class="cls-1" d="M14.26,11.79a.8.8,0,1,0-.84-.79A.82.82,0,0,0,14.26,11.79Z" />
  <path class="cls-1" d="M229.14,11.79a.8.8,0,1,0-.85-.79A.83.83,0,0,0,229.14,11.79Z" />
  <path class="cls-1" d="M17.09,11.79a.8.8,0,1,0-.85-.79A.83.83,0,0,0,17.09,11.79Z" />
  <path class="cls-1" d="M206.52,11.79a.8.8,0,1,0-.84-.79A.83.83,0,0,0,206.52,11.79Z" />
  <path class="cls-1" d="M274.38,11.79a.8.8,0,1,0-.85-.79A.83.83,0,0,0,274.38,11.79Z" />
  <path class="cls-1" d="M200.87,11.79a.8.8,0,1,0,0-1.59.8.8,0,1,0,0,1.59Z" />
  <path class="cls-1" d="M203.69,11.79a.8.8,0,1,0-.84-.79A.82.82,0,0,0,203.69,11.79Z" />
  <path class="cls-1"
    d="M288.52,11.79a.88.88,0,0,0,.6-.23.83.83,0,0,0,.24-.56.8.8,0,0,0-.24-.57.94.94,0,0,0-1.2,0,.77.77,0,0,0-.25.57.78.78,0,0,0,.25.56A.86.86,0,0,0,288.52,11.79Z" />
  <path class="cls-1" d="M288.52,211.47a.8.8,0,1,0-.85-.8A.83.83,0,0,0,288.52,211.47Z" />
  <ellipse class="cls-1" cx="288.52" cy="234.63" rx="0.85" ry="0.8" />
  <path class="cls-1" d="M288.52,254.07a.8.8,0,1,0-.85-.8A.82.82,0,0,0,288.52,254.07Z" />
  <path class="cls-1" d="M288.52,230.11a.8.8,0,1,0-.85-.8A.83.83,0,0,0,288.52,230.11Z" />
  <ellipse class="cls-1" cx="288.52" cy="255.93" rx="0.85" ry="0.8" />
  <path class="cls-1" d="M288.52,227.44a.8.8,0,1,0,0-1.59.8.8,0,1,0,0,1.59Z" />
  <ellipse class="cls-1" cx="288.52" cy="218.66" rx="0.85" ry="0.8" />
  <path class="cls-1" d="M288.52,259.39a.8.8,0,1,0,0-1.59.8.8,0,1,0,0,1.59Z" />
  <path class="cls-1" d="M288.52,224.78a.8.8,0,1,0,0-1.59.8.8,0,1,0,0,1.59Z" />
  <path class="cls-1" d="M288.52,246.08a.8.8,0,1,0,0-1.59.8.8,0,1,0,0,1.59Z" />
  <path class="cls-1" d="M288.52,238.1a.8.8,0,1,0,0-1.6.8.8,0,1,0,0,1.6Z" />
  <ellipse class="cls-1" cx="288.52" cy="216" rx="0.85" ry="0.8" />
  <path class="cls-1" d="M288.52,248.74a.8.8,0,1,0,0-1.59.8.8,0,1,0,0,1.59Z" />
  <ellipse class="cls-1" cx="288.52" cy="221.33" rx="0.85" ry="0.8" />
  <path class="cls-1" d="M288.52,232.77a.8.8,0,1,0-.85-.8A.83.83,0,0,0,288.52,232.77Z" />
  <path class="cls-1" d="M288.52,214.14a.8.8,0,1,0-.85-.8A.83.83,0,0,0,288.52,214.14Z" />
  <ellipse class="cls-1" cx="288.52" cy="239.96" rx="0.85" ry="0.8" />
  <path class="cls-1" d="M288.52,251.41a.8.8,0,1,0,0-1.6.8.8,0,1,0,0,1.6Z" />
  <ellipse class="cls-1" cx="288.52" cy="242.63" rx="0.85" ry="0.8" />
  <path class="cls-1" d="M288.52,275.37a.8.8,0,1,0-.85-.79A.83.83,0,0,0,288.52,275.37Z" />
  <path class="cls-1" d="M288.52,304.65a.8.8,0,1,0,0-1.59.8.8,0,1,0,0,1.59Z" />
  <path class="cls-1" d="M288.52,307.32a.8.8,0,1,0-.85-.8A.83.83,0,0,0,288.52,307.32Z" />
  <path class="cls-1" d="M288.52,310a.8.8,0,1,0-.85-.8A.83.83,0,0,0,288.52,310Z" />
  <ellipse class="cls-1" cx="288.52" cy="301.2" rx="0.85" ry="0.8" />
  <ellipse class="cls-1" cx="288.52" cy="295.87" rx="0.85" ry="0.8" />
  <ellipse class="cls-1" cx="288.52" cy="298.54" rx="0.85" ry="0.8" />
  <ellipse class="cls-1" cx="288.52" cy="322.5" rx="0.85" ry="0.8" />
  <path class="cls-1" d="M288.52,320.63a.8.8,0,1,0-.85-.8A.83.83,0,0,0,288.52,320.63Z" />
  <ellipse class="cls-1" cx="288.52" cy="261.26" rx="0.85" ry="0.8" />
  <ellipse class="cls-1" cx="288.52" cy="311.84" rx="0.85" ry="0.8" />
  <ellipse class="cls-1" cx="288.52" cy="317.17" rx="0.85" ry="0.8" />
  <path class="cls-1" d="M288.52,315.31a.8.8,0,1,0,0-1.6.8.8,0,1,0,0,1.6Z" />
  <path class="cls-1" d="M288.52,294a.8.8,0,1,0,0-1.6.8.8,0,1,0,0,1.6Z" />
  <path class="cls-1" d="M288.52,272.71a.8.8,0,1,0,0-1.6.8.8,0,1,0,0,1.6Z" />
  <path class="cls-1" d="M288.52,270.05a.8.8,0,1,0,0-1.6.8.8,0,1,0,0,1.6Z" />
  <path class="cls-1" d="M288.52,208.81a.8.8,0,1,0-.85-.8A.83.83,0,0,0,288.52,208.81Z" />
  <path class="cls-1" d="M288.52,267.38a.8.8,0,1,0,0-1.59.8.8,0,1,0,0,1.59Z" />
  <path class="cls-1" d="M288.52,264.72a.8.8,0,1,0-.85-.8A.83.83,0,0,0,288.52,264.72Z" />
  <ellipse class="cls-1" cx="288.52" cy="277.24" rx="0.85" ry="0.8" />
  <path class="cls-1" d="M288.52,286a.8.8,0,1,0-.85-.8A.83.83,0,0,0,288.52,286Z" />
  <path class="cls-1" d="M288.52,288.68a.8.8,0,1,0-.85-.8A.83.83,0,0,0,288.52,288.68Z" />
  <path class="cls-1" d="M288.52,291.35a.8.8,0,1,0-.85-.8A.83.83,0,0,0,288.52,291.35Z" />
  <path class="cls-1" d="M288.52,283.36a.8.8,0,1,0-.85-.8A.83.83,0,0,0,288.52,283.36Z" />
  <ellipse class="cls-1" cx="288.52" cy="279.9" rx="0.85" ry="0.8" />
  <path class="cls-1" d="M288.52,102.31a.8.8,0,1,0-.85-.8A.82.82,0,0,0,288.52,102.31Z" />
  <path class="cls-1" d="M288.52,89a.8.8,0,1,0,0-1.59.8.8,0,1,0,0,1.59Z" />
  <path class="cls-1" d="M288.52,86.34a.8.8,0,1,0,0-1.6.8.8,0,1,0,0,1.6Z" />
  <ellipse class="cls-1" cx="288.52" cy="90.87" rx="0.85" ry="0.8" />
  <path class="cls-1" d="M288.52,97a.8.8,0,1,0-.85-.8A.83.83,0,0,0,288.52,97Z" />
  <path class="cls-1" d="M288.52,94.32a.8.8,0,1,0,0-1.59.8.8,0,1,0,0,1.59Z" />
  <path class="cls-1" d="M288.52,134.26a.8.8,0,1,0-.85-.8A.83.83,0,0,0,288.52,134.26Z" />
  <ellipse class="cls-1" cx="288.52" cy="72.23" rx="0.85" ry="0.8" />
  <ellipse class="cls-1" cx="288.52" cy="74.89" rx="0.85" ry="0.8" />
  <path class="cls-1" d="M288.52,70.36a.8.8,0,1,0,0-1.59.8.8,0,1,0,0,1.59Z" />
  <path class="cls-1" d="M288.52,99.65a.8.8,0,1,0-.85-.8A.83.83,0,0,0,288.52,99.65Z" />
  <ellipse class="cls-1" cx="288.52" cy="77.55" rx="0.85" ry="0.8" />
  <path class="cls-1" d="M288.52,83.68a.8.8,0,1,0,0-1.6.8.8,0,1,0,0,1.6Z" />
  <path class="cls-1" d="M288.52,126.27a.8.8,0,1,0,0-1.59.8.8,0,1,0,0,1.59Z" />
  <path class="cls-1" d="M288.52,123.61a.8.8,0,1,0,0-1.59.8.8,0,1,0,0,1.59Z" />
  <ellipse class="cls-1" cx="288.52" cy="104.18" rx="0.85" ry="0.8" />
  <path class="cls-1" d="M288.52,128.94a.8.8,0,1,0-.85-.8A.83.83,0,0,0,288.52,128.94Z" />
  <ellipse class="cls-1" cx="288.52" cy="130.8" rx="0.85" ry="0.8" />
  <ellipse class="cls-1" cx="288.52" cy="120.15" rx="0.85" ry="0.8" />
  <ellipse class="cls-1" cx="288.52" cy="109.5" rx="0.85" ry="0.8" />
  <path class="cls-1" d="M288.52,107.64a.8.8,0,1,0,0-1.6.8.8,0,1,0,0,1.6Z" />
  <path class="cls-1" d="M288.52,115.62a.8.8,0,1,0,0-1.59.8.8,0,1,0,0,1.59Z" />
  <path class="cls-1" d="M288.52,118.29a.8.8,0,1,0,0-1.6.8.8,0,1,0,0,1.6Z" />
  <path class="cls-1" d="M288.52,113a.8.8,0,1,0,0-1.59.8.8,0,1,0,0,1.59Z" />
  <path class="cls-1" d="M288.52,81a.8.8,0,1,0,0-1.59.8.8,0,1,0,0,1.59Z" />
  <ellipse class="cls-1" cx="288.52" cy="26.97" rx="0.85" ry="0.8" />
  <path class="cls-1" d="M288.52,30.43a.8.8,0,1,0,0-1.6.8.8,0,1,0,0,1.6Z" />
  <path class="cls-1" d="M288.52,25.1a.8.8,0,1,0-.85-.8A.82.82,0,0,0,288.52,25.1Z" />
  <path class="cls-1" d="M288.52,35.75a.8.8,0,1,0,0-1.59.8.8,0,1,0,0,1.59Z" />
  <path class="cls-1" d="M288.52,33.09a.8.8,0,1,0-.85-.8A.83.83,0,0,0,288.52,33.09Z" />
  <path class="cls-1" d="M288.52,19.78a.8.8,0,1,0-.85-.8A.83.83,0,0,0,288.52,19.78Z" />
  <path class="cls-1" d="M288.52,14.45a.8.8,0,1,0,0-1.59.8.8,0,1,0,0,1.59Z" />
  <path class="cls-1" d="M288.52,326a.8.8,0,1,0,0-1.59.8.8,0,1,0,0,1.59Z" />
  <ellipse class="cls-1" cx="288.52" cy="21.64" rx="0.85" ry="0.8" />
  <path class="cls-1" d="M288.52,38.41a.8.8,0,1,0,0-1.59.8.8,0,1,0,0,1.59Z" />
  <path class="cls-1" d="M288.52,17.11a.8.8,0,1,0,0-1.59.8.8,0,1,0,0,1.59Z" />
  <ellipse class="cls-1" cx="288.52" cy="50.93" rx="0.85" ry="0.8" />
  <path class="cls-1" d="M288.52,59.71a.8.8,0,1,0,0-1.59.8.8,0,1,0,0,1.59Z" />
  <path class="cls-1" d="M288.52,57.05a.8.8,0,1,0,0-1.59.8.8,0,1,0,0,1.59Z" />
  <path class="cls-1" d="M288.52,65a.8.8,0,1,0-.85-.8A.83.83,0,0,0,288.52,65Z" />
  <path class="cls-1" d="M288.52,54.39a.8.8,0,1,0-.85-.8A.83.83,0,0,0,288.52,54.39Z" />
  <ellipse class="cls-1" cx="288.52" cy="61.58" rx="0.85" ry="0.8" />
  <path class="cls-1" d="M288.52,67.7a.8.8,0,1,0,0-1.59.8.8,0,1,0,0,1.59Z" />
  <path class="cls-1" d="M288.52,43.74a.8.8,0,1,0-.85-.8A.82.82,0,0,0,288.52,43.74Z" />
  <path class="cls-1" d="M288.52,41.07a.8.8,0,1,0,0-1.59.8.8,0,1,0,0,1.59Z" />
  <path class="cls-1" d="M288.52,46.4a.8.8,0,1,0-.85-.8A.82.82,0,0,0,288.52,46.4Z" />
  <path class="cls-1" d="M288.52,49.06a.8.8,0,1,0,0-1.59.8.8,0,1,0,0,1.59Z" />
  <ellipse class="cls-1" cx="288.52" cy="359.77" rx="0.85" ry="0.8" />
  <path class="cls-1" d="M288.52,182.19a.8.8,0,1,0,0-1.6.8.8,0,1,0,0,1.6Z" />
  <ellipse class="cls-1" cx="288.52" cy="184.05" rx="0.85" ry="0.8" />
  <ellipse class="cls-1" cx="288.52" cy="178.72" rx="0.85" ry="0.8" />
  <ellipse class="cls-1" cx="288.52" cy="189.38" rx="0.85" ry="0.8" />
  <path class="cls-1" d="M288.52,187.51a.8.8,0,1,0-.85-.8A.83.83,0,0,0,288.52,187.51Z" />
  <path class="cls-1" d="M288.52,176.86a.8.8,0,1,0-.85-.8A.82.82,0,0,0,288.52,176.86Z" />
  <path class="cls-1" d="M288.52,168.87a.8.8,0,1,0,0-1.59.8.8,0,1,0,0,1.59Z" />
  <ellipse class="cls-1" cx="288.52" cy="205.35" rx="0.85" ry="0.8" />
  <ellipse class="cls-1" cx="288.52" cy="173.4" rx="0.85" ry="0.8" />
  <ellipse class="cls-1" cx="288.52" cy="192.04" rx="0.85" ry="0.8" />
  <path class="cls-1" d="M288.52,171.53a.8.8,0,1,0,0-1.59.8.8,0,1,0,0,1.59Z" />
  <path class="cls-1" d="M288.52,363.23a.8.8,0,1,0-.85-.8A.83.83,0,0,0,288.52,363.23Z" />
  <path class="cls-1" d="M288.52,166.21a.8.8,0,1,0-.85-.8A.83.83,0,0,0,288.52,166.21Z" />
  <path class="cls-1" d="M288.52,376.54a.8.8,0,1,0,0-1.59.8.8,0,1,0,0,1.59Z" />
  <path class="cls-1" d="M288.52,203.48a.8.8,0,1,0,0-1.59.8.8,0,1,0,0,1.59Z" />
  <ellipse class="cls-1" cx="288.52" cy="373.08" rx="0.85" ry="0.8" />
  <ellipse class="cls-1" cx="288.52" cy="200.03" rx="0.85" ry="0.8" />
  <ellipse class="cls-1" cx="288.52" cy="378.41" rx="0.85" ry="0.8" />
  <ellipse class="cls-1" cx="288.52" cy="194.7" rx="0.85" ry="0.8" />
  <path class="cls-1" d="M288.52,365.89a.8.8,0,1,0-.85-.8A.83.83,0,0,0,288.52,365.89Z" />
  <path class="cls-1" d="M288.52,371.22a.8.8,0,1,0,0-1.6.8.8,0,1,0,0,1.6Z" />
  <path class="cls-1" d="M288.52,368.56a.8.8,0,1,0,0-1.6.8.8,0,1,0,0,1.6Z" />
  <path class="cls-1" d="M288.52,198.16a.8.8,0,1,0-.85-.8A.82.82,0,0,0,288.52,198.16Z" />
  <ellipse class="cls-1" cx="288.52" cy="162.75" rx="0.85" ry="0.8" />
  <ellipse class="cls-1" cx="288.52" cy="338.47" rx="0.85" ry="0.8" />
  <ellipse class="cls-1" cx="288.52" cy="144.12" rx="0.85" ry="0.8" />
  <path class="cls-1" d="M288.52,142.25a.8.8,0,1,0-.85-.8A.83.83,0,0,0,288.52,142.25Z" />
  <path class="cls-1" d="M288.52,147.57a.8.8,0,1,0,0-1.59.8.8,0,1,0,0,1.59Z" />
  <path class="cls-1" d="M288.52,150.23a.79.79,0,1,0,0-1.58.79.79,0,1,0,0,1.58Z" />
  <path class="cls-1" d="M288.52,331.28a.8.8,0,1,0-.85-.79A.83.83,0,0,0,288.52,331.28Z" />
  <path class="cls-1" d="M288.52,139.59a.8.8,0,1,0,0-1.6.8.8,0,1,0,0,1.6Z" />
  <path class="cls-1" d="M288.52,328.62a.8.8,0,1,0-.85-.8A.83.83,0,0,0,288.52,328.62Z" />
  <path class="cls-1" d="M288.52,152.9a.8.8,0,1,0-.85-.8A.83.83,0,0,0,288.52,152.9Z" />
  <ellipse class="cls-1" cx="288.52" cy="333.15" rx="0.85" ry="0.8" />
  <path class="cls-1" d="M288.52,336.61a.8.8,0,1,0,0-1.6.8.8,0,1,0,0,1.6Z" />
  <ellipse class="cls-1" cx="288.52" cy="160.09" rx="0.85" ry="0.8" />
  <path class="cls-1" d="M288.52,347.26a.8.8,0,1,0,0-1.6.8.8,0,1,0,0,1.6Z" />
  <path class="cls-1" d="M288.52,349.92a.8.8,0,1,0,0-1.6.8.8,0,1,0,0,1.6Z" />
  <path class="cls-1" d="M288.52,341.93a.8.8,0,1,0-.85-.8A.83.83,0,0,0,288.52,341.93Z" />
  <path class="cls-1" d="M288.52,136.93a.8.8,0,1,0,0-1.6.8.8,0,1,0,0,1.6Z" />
  <path class="cls-1" d="M288.52,355.24a.8.8,0,1,0,0-1.59.8.8,0,1,0,0,1.59Z" />
  <path class="cls-1" d="M288.52,352.58a.8.8,0,1,0-.85-.79A.83.83,0,0,0,288.52,352.58Z" />
  <path class="cls-1" d="M288.52,344.59a.8.8,0,1,0-.85-.8A.83.83,0,0,0,288.52,344.59Z" />
  <path class="cls-1" d="M288.52,155.56a.8.8,0,1,0-.85-.8A.83.83,0,0,0,288.52,155.56Z" />
  <ellipse class="cls-1" cx="288.52" cy="357.11" rx="0.85" ry="0.8" />
  <ellipse class="cls-1" cx="288.52" cy="389.07" rx="0.85" ry="0.8" />
  <path class="cls-1" d="M288.52,387.2a.8.8,0,1,0,0-1.6.8.8,0,1,0,0,1.6Z" />
  <ellipse class="cls-1" cx="288.52" cy="378.41" rx="0.85" ry="0.8" />
  <ellipse class="cls-1" cx="288.52" cy="383.74" rx="0.85" ry="0.8" />
  <path class="cls-1" d="M288.52,381.87a.8.8,0,1,0,0-1.59.8.8,0,1,0,0,1.59Z" />
  <path class="cls-1" d="M288.52,392.52a.8.8,0,1,0,0-1.59.8.8,0,1,0,0,1.59Z" />
  <ellipse class="cls-1" cx="288.52" cy="426.34" rx="0.85" ry="0.8" />
  <path class="cls-1" d="M288.52,429.8a.8.8,0,1,0,0-1.6.8.8,0,1,0,0,1.6Z" />
  <ellipse class="cls-1" cx="288.52" cy="439.65" rx="0.85" ry="0.8" />
  <path class="cls-1" d="M288.52,432.46a.8.8,0,1,0,0-1.6.8.8,0,1,0,0,1.6Z" />
  <path class="cls-1" d="M288.52,437.78a.8.8,0,1,0,0-1.59.8.8,0,1,0,0,1.59Z" />
  <path class="cls-1" d="M288.52,435.12a.8.8,0,1,0,0-1.59.8.8,0,1,0,0,1.59Z" />
  <ellipse class="cls-1" cx="288.52" cy="405.04" rx="0.85" ry="0.8" />
  <path class="cls-1" d="M288.52,397.85a.8.8,0,1,0-.85-.8A.83.83,0,0,0,288.52,397.85Z" />
  <path class="cls-1" d="M288.52,395.18a.8.8,0,1,0,0-1.59.8.8,0,1,0,0,1.59Z" />
  <ellipse class="cls-1" cx="288.52" cy="399.71" rx="0.85" ry="0.8" />
  <path class="cls-1" d="M288.52,403.17a.8.8,0,1,0,0-1.59.8.8,0,1,0,0,1.59Z" />
  <path class="cls-1" d="M288.52,413.82a.8.8,0,1,0,0-1.59.8.8,0,1,0,0,1.59Z" />
  <path class="cls-1" d="M288.52,416.48a.8.8,0,1,0,0-1.59.8.8,0,1,0,0,1.59Z" />
  <path class="cls-1" d="M288.52,408.5a.8.8,0,1,0,0-1.6.8.8,0,1,0,0,1.6Z" />
  <path class="cls-1" d="M288.52,421.81a.8.8,0,1,0-.85-.8A.83.83,0,0,0,288.52,421.81Z" />
  <path class="cls-1" d="M288.52,419.14a.79.79,0,1,0,0-1.58.79.79,0,1,0,0,1.58Z" />
  <path class="cls-1" d="M288.52,411.16a.8.8,0,1,0-.85-.8A.83.83,0,0,0,288.52,411.16Z" />
  <ellipse class="cls-1" cx="288.52" cy="423.67" rx="0.85" ry="0.8" />
  <ellipse class="cls-1" cx="288.52" cy="157.43" rx="0.85" ry="0.8" />
  <path class="cls-1"
    d="M284.87,54.55v-12l-2.61.56h-.1a4.44,4.44,0,0,1-2.37-.68,3.11,3.11,0,0,0-1.06,2.32,1.78,1.78,0,0,0,1.83,1.72.87.87,0,0,0,.9-.84.34.34,0,0,0-.35-.33.4.4,0,0,1-.42-.39.41.41,0,0,1,.42-.39,1.14,1.14,0,0,1,1.17,1.11,1.67,1.67,0,0,1-1.72,1.61,2.57,2.57,0,0,1-2.65-2.49,3.84,3.84,0,0,1,.92-2.48A8.1,8.1,0,0,1,272,37.89a3.1,3.1,0,0,1-.84,1.68,3.48,3.48,0,0,1-2.5.87,3.81,3.81,0,0,1-2.84-1.06,3.3,3.3,0,0,1-.86-2,4.19,4.19,0,0,1-2.56,1.06,2.86,2.86,0,0,1-1.85-.69,2.55,2.55,0,0,1-.73-1.74,3.73,3.73,0,0,1,1.13-2.4,3.65,3.65,0,0,1-2.17-.81,3.33,3.33,0,0,1-1.13-2.67,3,3,0,0,1,.92-2.35A3.6,3.6,0,0,1,260.4,27a7.63,7.63,0,0,1-4.67-6.37,4.41,4.41,0,0,1-2.64.86A2.58,2.58,0,0,1,250.44,19a1.68,1.68,0,0,1,1.72-1.62,1.15,1.15,0,0,1,1.17,1.11.41.41,0,0,1-.82,0,.34.34,0,0,0-.35-.33.87.87,0,0,0-.9.84,1.78,1.78,0,0,0,1.83,1.71,3.52,3.52,0,0,0,2.47-1,3.85,3.85,0,0,1-.72-2.23.19.19,0,0,1,0-.08l.59-2.46H52.67l-.78-.78H285.7V55.41Zm-2.75-12.21L283.7,42l-1.6-.47a3.53,3.53,0,0,0-1.59.4A3.62,3.62,0,0,0,282.12,42.34Zm-22.94-14a2.27,2.27,0,0,0-.66,1.78,2.6,2.6,0,0,0,.85,2.09,3.4,3.4,0,0,0,2.61.6.41.41,0,0,1,.43.23.38.38,0,0,1-.13.46s-1.6,1.18-1.59,2.51a1.79,1.79,0,0,0,.48,1.18,2,2,0,0,0,1.27.46,4.17,4.17,0,0,0,2.67-1.5.45.45,0,0,1,.48-.12.38.38,0,0,1,.25.41,2.62,2.62,0,0,0,2.86,3.25,2.6,2.6,0,0,0,1.9-.62,3,3,0,0,0,.72-2.14,2.67,2.67,0,0,1-1.8,1.27,2,2,0,0,1-2.38-1.34,1.06,1.06,0,0,1,0-.31,1.13,1.13,0,0,1,.19-.63,1.31,1.31,0,0,1,.81-.56.93.93,0,0,1,.71.1.89.89,0,0,1,.43.54.39.39,0,0,1-.3.47.42.42,0,0,1-.5-.28.11.11,0,0,0-.06-.07.09.09,0,0,0-.08,0,.44.44,0,0,0-.3.21.44.44,0,0,0-.06.35,1.07,1.07,0,0,0,.52.66,1.22,1.22,0,0,0,.86.12c.78-.19,1.78-.71,1.61-3.05a12.45,12.45,0,0,1-.14-1.84,13.62,13.62,0,0,1,.43-3.35c-.37,0-.73.07-1.1.13a8.23,8.23,0,0,1-6.58,6.06.47.47,0,0,1-.34-.11.43.43,0,0,1-.12-.32s.66-4.76,6.45-6.18a9.41,9.41,0,0,0,.14-1,16.39,16.39,0,0,1-3.56.4,16.16,16.16,0,0,1-2-.13c-2.48-.16-3,.78-3.23,1.51a1,1,0,0,0,.12.81,1.18,1.18,0,0,0,.7.49.56.56,0,0,0,.38,0,.49.49,0,0,0,.22-.29.11.11,0,0,0,0-.08.13.13,0,0,0-.07-.05.38.38,0,0,1-.3-.47.41.41,0,0,1,.5-.28,1,1,0,0,1,.58.4.87.87,0,0,1,.1.67,1.23,1.23,0,0,1-.6.76,1.35,1.35,0,0,1-.67.18,1.86,1.86,0,0,1-.33,0,1.83,1.83,0,0,1-1.42-2.24,2.52,2.52,0,0,1,1.35-1.69A3.53,3.53,0,0,0,259.18,28.31Zm12.26.1A13.47,13.47,0,0,1,272,27a14.9,14.9,0,0,1-1.47.49,8.35,8.35,0,0,1-.1,1A9.5,9.5,0,0,1,271.44,28.41Zm-7.32,6.05a7.24,7.24,0,0,0,5-4.79,7.22,7.22,0,0,0-5.1,4.73l.11,0ZM256,16l-.36,1.48a3.16,3.16,0,0,0,.43,1.52,3.11,3.11,0,0,0,.43-1.5Zm24.09-1.1h-4.2l4.2,3.94Zm4.76,0h-3.94v3.7h3.94Zm0,4.48h-4.19l4.19,3.94Zm0,5.9c-1.47,1.82-1,3.38-.55,4.88s.93,3.12-.76,4.71a2,2,0,0,1-1.62.48,3,3,0,0,1-2.1-1.33,1.57,1.57,0,0,1,.63-2.21,1.3,1.3,0,0,1,.89-.11,1.17,1.17,0,0,1,.72.52.39.39,0,0,1-.15.53.44.44,0,0,1-.57-.15.37.37,0,0,0-.48-.12.88.88,0,0,0-.41.52.78.78,0,0,0,.09.63,2.17,2.17,0,0,0,1.48,1,1.13,1.13,0,0,0,.93-.27c1.35-1.27,1-2.45.55-3.95-.53-1.76-1.12-3.76,1.19-6.11l-1-.92-.15.26A3.43,3.43,0,0,1,281.45,25a3.54,3.54,0,0,1-2.57-.42,2,2,0,0,1-.67-2.8,1.5,1.5,0,0,1,2-.41.94.94,0,0,1,.44.59.89.89,0,0,1-.13.71.42.42,0,0,1-.57.12.37.37,0,0,1-.13-.53.13.13,0,0,0,0-.13.16.16,0,0,0-.07-.11.65.65,0,0,0-.84.18,1.22,1.22,0,0,0,.41,1.73,2.73,2.73,0,0,0,1.94.31,2.57,2.57,0,0,0,1.62-1.06,4.49,4.49,0,0,0,.24-.42l-6.63-6.23-.44.23a2.43,2.43,0,0,0-1.13,1.52,2.3,2.3,0,0,0,.33,1.82,1.39,1.39,0,0,0,1.84.39.55.55,0,0,0,.19-.78.19.19,0,0,0-.12-.08.17.17,0,0,0-.13,0,.42.42,0,0,1-.57-.12.36.36,0,0,1,.13-.53,1,1,0,0,1,.75-.13,1,1,0,0,1,.63.42,1.28,1.28,0,0,1-.44,1.85,2.15,2.15,0,0,1-1.15.32,2.19,2.19,0,0,1-1.82-.94,3,3,0,0,1-.45-2.41,3.15,3.15,0,0,1,1.5-2c.09-.06.18-.1.27-.15l-1-.92c-2.51,2.17-4.63,1.61-6.51,1.12-1.59-.42-2.85-.75-4.2.51a1,1,0,0,0-.28.88,2,2,0,0,0,1,1.39,1,1,0,0,0,.68.09.9.9,0,0,0,.55-.4.32.32,0,0,0-.13-.44.37.37,0,0,1-.15-.53.43.43,0,0,1,.56-.15,1.13,1.13,0,0,1,.55.68,1,1,0,0,1-.12.83,1.78,1.78,0,0,1-2.35.59,2.79,2.79,0,0,1-1.42-2,1.72,1.72,0,0,1,.52-1.53c1.69-1.58,3.37-1.14,5-.71s3.25.86,5.19-.52h-17.3l.81,2.43a.37.37,0,0,1,0,.11,3.78,3.78,0,0,1-.72,2.23,3.52,3.52,0,0,0,2.47,1A1.78,1.78,0,0,0,260.92,19a.86.86,0,0,0-.89-.84.34.34,0,0,0-.35.33.42.42,0,0,1-.83,0A1.15,1.15,0,0,1,260,17.33,1.68,1.68,0,0,1,261.75,19a2.58,2.58,0,0,1-2.66,2.49,4.47,4.47,0,0,1-2.53-.79,7,7,0,0,0,4.81,5.86,14.43,14.43,0,0,0,8.33.39,5.26,5.26,0,0,0-.72-2.79,3.23,3.23,0,0,0-4.28-1,1.49,1.49,0,0,0-.55,2.12.74.74,0,0,0,.48.33.83.83,0,0,0,.6-.08.31.31,0,0,0,.13-.17.24.24,0,0,0,0-.2.38.38,0,0,1,.13-.54.44.44,0,0,1,.57.13,1,1,0,0,1-.37,1.44,1.72,1.72,0,0,1-1.22.18,1.6,1.6,0,0,1-1-.69,2.25,2.25,0,0,1,.83-3.19,4.1,4.1,0,0,1,5.42,1.25,6,6,0,0,1,.82,3,13.87,13.87,0,0,0,2.07-.8c.64-.66,1.88-2.17,1.1-3.42a1.29,1.29,0,0,0-1.71-.42.52.52,0,0,0-.2.72.14.14,0,0,0,.1.06.15.15,0,0,0,.11,0,.43.43,0,0,1,.57.14.38.38,0,0,1-.15.53,1.06,1.06,0,0,1-.74.09.94.94,0,0,1-.6-.42,1.26,1.26,0,0,1,.5-1.78,2.16,2.16,0,0,1,2.84.7,2.68,2.68,0,0,1,0,2.65,3.17,3.17,0,0,1,2.82,0,1.89,1.89,0,0,1,.74,2.67,1.43,1.43,0,0,1-1.89.47,1,1,0,0,1-.45-.56.86.86,0,0,1,.1-.7.43.43,0,0,1,.57-.14.37.37,0,0,1,.14.53.15.15,0,0,0,0,.11.13.13,0,0,0,.07.09.58.58,0,0,0,.76-.19,1.14,1.14,0,0,0-.45-1.61c-1.32-.72-2.94.44-3.64,1a12.63,12.63,0,0,0-.85,1.95,6.88,6.88,0,0,1,3.18.77,3.57,3.57,0,0,1,1.32,5.08,2.56,2.56,0,0,1-3.39.79,1.52,1.52,0,0,1-.73-.94,1.46,1.46,0,0,1,.18-1.15,1.16,1.16,0,0,1,1.53-.35.37.37,0,0,1,.14.53.41.41,0,0,1-.56.13.42.42,0,0,0-.22,0,.29.29,0,0,0-.18.12.71.71,0,0,0-.09.57.73.73,0,0,0,.36.45,1.71,1.71,0,0,0,2.26-.52,2.83,2.83,0,0,0-1.05-4,6.37,6.37,0,0,0-3-.68,12.09,12.09,0,0,0,.42,7.83,7.34,7.34,0,0,0,6.24,4.52,3.81,3.81,0,0,1-.84-2.38,2.57,2.57,0,0,1,2.65-2.49,1.67,1.67,0,0,1,1.72,1.61,1.14,1.14,0,0,1-1.17,1.11.41.41,0,0,1-.42-.39.4.4,0,0,1,.42-.39.34.34,0,0,0,.35-.33.87.87,0,0,0-.9-.84,1.78,1.78,0,0,0-1.83,1.72,3.11,3.11,0,0,0,1.06,2.32,4.44,4.44,0,0,1,2.37-.68l.13,0,2.58.76Z" />
  <path class="cls-1"
    d="M15.23,398.22V42.55l2.62.56h.09a4.44,4.44,0,0,0,2.37-.68,3.11,3.11,0,0,1,1.06,2.32,1.78,1.78,0,0,1-1.83,1.72.87.87,0,0,1-.9-.84.34.34,0,0,1,.35-.33.4.4,0,0,0,.42-.39.41.41,0,0,0-.42-.39,1.14,1.14,0,0,0-1.17,1.11,1.67,1.67,0,0,0,1.72,1.61,2.57,2.57,0,0,0,2.65-2.49,3.84,3.84,0,0,0-.92-2.48,8.1,8.1,0,0,0,6.79-4.39,3.1,3.1,0,0,0,.84,1.68,3.48,3.48,0,0,0,2.5.87,3.81,3.81,0,0,0,2.84-1.06,3.25,3.25,0,0,0,.86-2,4.19,4.19,0,0,0,2.56,1.06,2.86,2.86,0,0,0,1.85-.69A2.55,2.55,0,0,0,40.24,36a3.77,3.77,0,0,0-1.12-2.4,3.64,3.64,0,0,0,2.16-.81,3.33,3.33,0,0,0,1.13-2.67,3,3,0,0,0-.92-2.35A3.6,3.6,0,0,0,39.7,27a7.63,7.63,0,0,0,4.67-6.37,4.44,4.44,0,0,0,2.64.86A2.59,2.59,0,0,0,49.67,19,1.68,1.68,0,0,0,48,17.33a1.15,1.15,0,0,0-1.18,1.11.39.39,0,0,0,.41.38.4.4,0,0,0,.42-.38.33.33,0,0,1,.35-.33.86.86,0,0,1,.89.84A1.78,1.78,0,0,1,47,20.66a3.52,3.52,0,0,1-2.47-1,3.85,3.85,0,0,0,.72-2.23.19.19,0,0,0,0-.08l-.59-2.46H54.92l.78-.78H14.41v385ZM18,42.34,16.41,42,18,41.54a3.5,3.5,0,0,1,1.59.4A3.58,3.58,0,0,1,18,42.34Zm22.94-14a2.27,2.27,0,0,1,.66,1.78,2.6,2.6,0,0,1-.85,2.09,3.4,3.4,0,0,1-2.61.6.42.42,0,0,0-.43.23.38.38,0,0,0,.13.46s1.6,1.18,1.59,2.51a1.79,1.79,0,0,1-.48,1.18,2,2,0,0,1-1.27.46A4.17,4.17,0,0,1,35,36.12a.45.45,0,0,0-.48-.12.38.38,0,0,0-.25.41,2.62,2.62,0,0,1-2.86,3.25A2.62,2.62,0,0,1,29.5,39a3.07,3.07,0,0,1-.72-2.14,2.67,2.67,0,0,0,1.8,1.27A2,2,0,0,0,33,36.83a1.06,1.06,0,0,0,0-.31,1.13,1.13,0,0,0-.19-.63,1.29,1.29,0,0,0-.81-.56.93.93,0,0,0-.71.1.89.89,0,0,0-.43.54.39.39,0,0,0,.3.47.42.42,0,0,0,.5-.28.11.11,0,0,1,.06-.07.11.11,0,0,1,.08,0,.49.49,0,0,1,.31.21.48.48,0,0,1,0,.35,1.07,1.07,0,0,1-.52.66,1.22,1.22,0,0,1-.86.12c-.78-.19-1.78-.71-1.61-3.05a12.45,12.45,0,0,0,.14-1.84,13.62,13.62,0,0,0-.43-3.35c.37,0,.73.07,1.1.13a8.23,8.23,0,0,0,6.58,6.06.47.47,0,0,0,.34-.11.43.43,0,0,0,.12-.32s-.66-4.76-6.45-6.18a9.41,9.41,0,0,1-.14-1,16.42,16.42,0,0,0,3.57.4A16.13,16.13,0,0,0,36,28c2.48-.16,3,.78,3.23,1.51a1,1,0,0,1-.12.81,1.18,1.18,0,0,1-.7.49.56.56,0,0,1-.38,0,.49.49,0,0,1-.22-.29.11.11,0,0,1,0-.08.13.13,0,0,1,.07-.05.38.38,0,0,0,.3-.47.41.41,0,0,0-.5-.28.91.91,0,0,0-.57.4.83.83,0,0,0-.11.67,1.26,1.26,0,0,0,.6.76,1.36,1.36,0,0,0,.68.18,1.87,1.87,0,0,0,.32,0A1.83,1.83,0,0,0,40,29.32a2.52,2.52,0,0,0-1.35-1.69A3.53,3.53,0,0,1,40.92,28.31Zm-12.26.1A13.47,13.47,0,0,0,28.14,27a14.9,14.9,0,0,0,1.47.49,8.35,8.35,0,0,0,.1,1A9.5,9.5,0,0,0,28.66,28.41ZM36,34.46a7.23,7.23,0,0,1-5-4.79,7.22,7.22,0,0,1,5.09,4.73l-.11,0ZM44.08,16l.36,1.48A3.16,3.16,0,0,1,44,19a3.11,3.11,0,0,1-.43-1.5ZM20,14.9h4.2L20,18.84Zm-4.76,0h3.94v3.7H15.23Zm0,4.48h4.19l-4.19,3.94Zm0,5.9c1.47,1.82,1,3.38.56,4.88s-.93,3.12.75,4.71a2,2,0,0,0,1.62.48A3,3,0,0,0,20.26,34a1.57,1.57,0,0,0-.63-2.21,1.3,1.3,0,0,0-.89-.11,1.17,1.17,0,0,0-.72.52.39.39,0,0,0,.15.53.44.44,0,0,0,.57-.15.37.37,0,0,1,.48-.12.88.88,0,0,1,.41.52.78.78,0,0,1-.09.63,2.17,2.17,0,0,1-1.48,1,1.13,1.13,0,0,1-.93-.27c-1.35-1.27-1-2.45-.55-3.95.53-1.76,1.12-3.76-1.18-6.11l1-.92a2.26,2.26,0,0,0,.16.26A3.38,3.38,0,0,0,18.66,25a3.53,3.53,0,0,0,2.56-.42,2,2,0,0,0,.67-2.8,1.5,1.5,0,0,0-2-.41.94.94,0,0,0-.44.59.89.89,0,0,0,.13.71.42.42,0,0,0,.57.12.37.37,0,0,0,.13-.53.16.16,0,0,1,0-.13s0-.07.08-.11a.64.64,0,0,1,.83.18,1.22,1.22,0,0,1-.41,1.73,2.73,2.73,0,0,1-1.94.31,2.57,2.57,0,0,1-1.62-1.06,4.49,4.49,0,0,1-.24-.42l6.63-6.23.44.23a2.48,2.48,0,0,1,1.14,1.52,2.26,2.26,0,0,1-.34,1.82A1.39,1.39,0,0,1,23,20.5a.55.55,0,0,1-.19-.78.19.19,0,0,1,.12-.08.17.17,0,0,1,.13,0,.42.42,0,0,0,.57-.12.36.36,0,0,0-.13-.53,1,1,0,0,0-.75-.13,1,1,0,0,0-.63.42,1.28,1.28,0,0,0,.44,1.85,2.23,2.23,0,0,0,3-.62A3,3,0,0,0,26,18.12a3.15,3.15,0,0,0-1.5-2c-.09-.06-.18-.1-.27-.15l1-.92c2.51,2.17,4.63,1.61,6.51,1.12,1.59-.42,2.85-.75,4.2.51a1,1,0,0,1,.28.88,2,2,0,0,1-1,1.39,1,1,0,0,1-.68.09.88.88,0,0,1-.54-.4.31.31,0,0,1,.12-.44.37.37,0,0,0,.15-.53.43.43,0,0,0-.56-.15,1.13,1.13,0,0,0-.55.68,1,1,0,0,0,.12.83,1.78,1.78,0,0,0,2.35.59,2.79,2.79,0,0,0,1.42-2,1.72,1.72,0,0,0-.52-1.53c-1.69-1.58-3.37-1.14-5-.71s-3.26.86-5.2-.52h17.3l-.81,2.43a.37.37,0,0,0,0,.11,3.78,3.78,0,0,0,.72,2.23,3.52,3.52,0,0,1-2.47,1A1.78,1.78,0,0,1,39.18,19a.86.86,0,0,1,.89-.84.33.33,0,0,1,.35.33.42.42,0,0,0,.83,0,1.15,1.15,0,0,0-1.18-1.11A1.68,1.68,0,0,0,38.35,19,2.58,2.58,0,0,0,41,21.44a4.44,4.44,0,0,0,2.53-.79,7,7,0,0,1-4.81,5.86,14.43,14.43,0,0,1-8.33.39,5.26,5.26,0,0,1,.72-2.79,3.23,3.23,0,0,1,4.28-1A1.48,1.48,0,0,1,36,25.25a.72.72,0,0,1-.48.33.83.83,0,0,1-.6-.08.31.31,0,0,1-.13-.17.24.24,0,0,1,0-.2.39.39,0,0,0-.14-.54.44.44,0,0,0-.57.13,1,1,0,0,0,.37,1.44,1.73,1.73,0,0,0,1.22.18,1.6,1.6,0,0,0,1-.69,2.25,2.25,0,0,0-.83-3.19,4.1,4.1,0,0,0-5.42,1.25,6,6,0,0,0-.82,3,13.87,13.87,0,0,1-2.07-.8c-.64-.66-1.87-2.17-1.1-3.42a1.29,1.29,0,0,1,1.71-.42.52.52,0,0,1,.2.72.14.14,0,0,1-.1.06.15.15,0,0,1-.11,0,.43.43,0,0,0-.57.14.39.39,0,0,0,.15.53,1.06,1.06,0,0,0,.74.09.94.94,0,0,0,.6-.42,1.26,1.26,0,0,0-.5-1.78,2.16,2.16,0,0,0-2.84.7,2.68,2.68,0,0,0,0,2.65,3.17,3.17,0,0,0-2.82,0,1.89,1.89,0,0,0-.74,2.67,1.43,1.43,0,0,0,1.89.47,1,1,0,0,0,.45-.56.86.86,0,0,0-.1-.7.42.42,0,0,0-.56-.14.37.37,0,0,0-.15.53.15.15,0,0,1,0,.11.13.13,0,0,1-.07.09.58.58,0,0,1-.76-.19,1.14,1.14,0,0,1,.45-1.61c1.32-.72,2.94.44,3.64,1a12.63,12.63,0,0,1,.85,1.95,6.88,6.88,0,0,0-3.18.77,3.58,3.58,0,0,0-1.32,5.08,2.56,2.56,0,0,0,3.39.79,1.52,1.52,0,0,0,.73-.94A1.42,1.42,0,0,0,27.22,33a1.16,1.16,0,0,0-1.53-.35.37.37,0,0,0-.14.53.42.42,0,0,0,.57.13.37.37,0,0,1,.21,0,.29.29,0,0,1,.18.12.72.72,0,0,1-.26,1A1.72,1.72,0,0,1,24,33.85a2.83,2.83,0,0,1,1.05-4,6.4,6.4,0,0,1,3-.68A12.09,12.09,0,0,1,27.59,37a7.34,7.34,0,0,1-6.24,4.52,3.81,3.81,0,0,0,.84-2.38,2.57,2.57,0,0,0-2.65-2.49,1.67,1.67,0,0,0-1.72,1.61A1.14,1.14,0,0,0,19,39.35a.41.41,0,0,0,.42-.39.4.4,0,0,0-.42-.39.34.34,0,0,1-.35-.33.87.87,0,0,1,.9-.84,1.78,1.78,0,0,1,1.83,1.72,3.11,3.11,0,0,1-1.06,2.32,4.44,4.44,0,0,0-2.37-.68l-.13,0-2.58.76Z" />
  <path class="cls-1"
    d="M284.87,53.57V408.11l-2.61-.56h-.1a4.44,4.44,0,0,0-2.37.68,3.13,3.13,0,0,1-1.06-2.32,1.78,1.78,0,0,1,1.83-1.72.87.87,0,0,1,.9.84.34.34,0,0,1-.35.33.39.39,0,1,0,0,.77,1.13,1.13,0,0,0,1.17-1.1,1.68,1.68,0,0,0-1.72-1.62,2.58,2.58,0,0,0-2.65,2.5,3.79,3.79,0,0,0,.92,2.47,8.13,8.13,0,0,0-6.79,4.4,3.1,3.1,0,0,0-.84-1.68,3.39,3.39,0,0,0-2.5-.87,3.81,3.81,0,0,0-2.84,1.06,3.3,3.3,0,0,0-.86,2,4.19,4.19,0,0,0-2.56-1.06,2.9,2.9,0,0,0-1.85.68,2.57,2.57,0,0,0-.73,1.74,3.73,3.73,0,0,0,1.13,2.41,3.71,3.71,0,0,0-2.17.8,3.36,3.36,0,0,0-1.13,2.68,3,3,0,0,0,.92,2.34,3.53,3.53,0,0,0,1.79.8,7.61,7.61,0,0,0-4.67,6.37,4.41,4.41,0,0,0-2.64-.86,2.58,2.58,0,0,0-2.65,2.49,1.68,1.68,0,0,0,1.72,1.62,1.15,1.15,0,0,0,1.17-1.11.41.41,0,0,0-.82,0,.34.34,0,0,1-.35.33.87.87,0,0,1-.9-.84,1.78,1.78,0,0,1,1.83-1.72,3.48,3.48,0,0,1,2.47,1,3.83,3.83,0,0,0-.72,2.23.25.25,0,0,0,0,.08l.59,2.46H245.18l-.78.77h41.3V52.7Zm-2.75,354.75,1.58.33-1.6.47a3.67,3.67,0,0,1-1.59-.4A3.49,3.49,0,0,1,282.12,408.32Zm-22.94,14a2.27,2.27,0,0,1-.66-1.78,2.62,2.62,0,0,1,.85-2.1,3.4,3.4,0,0,1,2.61-.59.42.42,0,0,0,.43-.24.37.37,0,0,0-.13-.45s-1.6-1.18-1.59-2.51a1.83,1.83,0,0,1,.48-1.19,2.18,2.18,0,0,1,1.27-.46,4.26,4.26,0,0,1,2.67,1.5.43.43,0,0,0,.48.13.39.39,0,0,0,.25-.41A2.61,2.61,0,0,1,268.7,411a2.56,2.56,0,0,1,1.9.62,3,3,0,0,1,.72,2.14,2.64,2.64,0,0,0-1.8-1.27,2,2,0,0,0-2.38,1.34,1,1,0,0,0,0,.3,1.16,1.16,0,0,0,.19.64,1.31,1.31,0,0,0,.81.56,1,1,0,0,0,.71-.1.89.89,0,0,0,.43-.54.39.39,0,0,0-.3-.47.41.41,0,0,0-.5.28.11.11,0,0,1-.06.07.09.09,0,0,1-.08,0,.48.48,0,0,1-.3-.21.44.44,0,0,1-.06-.35,1.07,1.07,0,0,1,.52-.66,1.17,1.17,0,0,1,.86-.12c.78.19,1.78.71,1.61,3a12.7,12.7,0,0,0-.14,1.85,13.48,13.48,0,0,0,.43,3.34,8.25,8.25,0,0,1-1.1-.13,8.21,8.21,0,0,0-6.58-6,.43.43,0,0,0-.34.11.41.41,0,0,0-.12.32s.66,4.76,6.45,6.18a9.09,9.09,0,0,1,.14,1,16.39,16.39,0,0,0-3.56-.4,14.38,14.38,0,0,0-2,.13c-2.48.16-3-.78-3.23-1.51a1,1,0,0,1,.12-.81,1.14,1.14,0,0,1,.7-.49.56.56,0,0,1,.38,0,.49.49,0,0,1,.22.29.11.11,0,0,1,0,.08.13.13,0,0,1-.07.05.38.38,0,0,0-.3.47.41.41,0,0,0,.5.28,1,1,0,0,0,.58-.4.88.88,0,0,0,.1-.67,1.23,1.23,0,0,0-.6-.76,1.35,1.35,0,0,0-.67-.18,1.24,1.24,0,0,0-.33,0,1.83,1.83,0,0,0-1.42,2.24,2.54,2.54,0,0,0,1.35,1.69A3.59,3.59,0,0,1,259.18,422.35Zm12.26-.1a12.48,12.48,0,0,0,.52,1.37q-.72-.27-1.47-.48a8.51,8.51,0,0,0-.1-1C270.75,422.2,271.09,422.23,271.44,422.25Zm-7.32-6.05a7.25,7.25,0,0,1,5,4.78,7.2,7.2,0,0,1-5.1-4.72l.11,0ZM256,434.65l-.36-1.48a3.12,3.12,0,0,1,.43-1.51,3,3,0,0,1,.43,1.5Zm24.09,1.11h-4.2l4.2-3.94Zm4.76,0h-3.94v-3.7h3.94Zm0-4.48h-4.19l4.19-3.94Zm0-5.9c-1.47-1.83-1-3.38-.55-4.89s.93-3.11-.76-4.7a2,2,0,0,0-1.62-.49,3,3,0,0,0-2.1,1.34,1.56,1.56,0,0,0,.63,2.2,1.25,1.25,0,0,0,.89.12,1.17,1.17,0,0,0,.72-.52.39.39,0,0,0-.15-.53.44.44,0,0,0-.57.14.36.36,0,0,1-.48.12.84.84,0,0,1-.41-.51.81.81,0,0,1,.09-.64,2.16,2.16,0,0,1,1.48-.95,1.13,1.13,0,0,1,.93.27c1.35,1.26,1,2.45.55,3.94-.53,1.77-1.12,3.76,1.19,6.12l-1,.91-.15-.26a3.38,3.38,0,0,0-2.13-1.4,3.54,3.54,0,0,0-2.57.42,2,2,0,0,0-1,1.71,2,2,0,0,0,.33,1.08,1.5,1.5,0,0,0,2,.42,1,1,0,0,0,.44-.59.92.92,0,0,0-.13-.72.44.44,0,0,0-.57-.12.39.39,0,0,0-.13.54.13.13,0,0,1,0,.13.14.14,0,0,1-.07.1.64.64,0,0,1-.84-.17,1.22,1.22,0,0,1,.41-1.73,2.73,2.73,0,0,1,1.94-.32,2.58,2.58,0,0,1,1.62,1.07,2.86,2.86,0,0,1,.24.42l-6.63,6.23-.44-.23a2.43,2.43,0,0,1-1.13-1.52,2.3,2.3,0,0,1,.33-1.82,1.38,1.38,0,0,1,1.84-.39.55.55,0,0,1,.19.78.25.25,0,0,1-.12.08.18.18,0,0,1-.13,0,.44.44,0,0,0-.57.12.38.38,0,0,0,.13.54,1,1,0,0,0,.75.12,1,1,0,0,0,.63-.41,1.29,1.29,0,0,0-.44-1.86,2.23,2.23,0,0,0-1.15-.31,2.19,2.19,0,0,0-1.82.94,3,3,0,0,0-.45,2.41,3.2,3.2,0,0,0,1.5,2l.27.15-1,.91c-2.51-2.16-4.63-1.61-6.51-1.11-1.59.42-2.85.75-4.2-.51a1,1,0,0,1-.28-.88,2,2,0,0,1,1-1.39.9.9,0,0,1,.68-.09.92.92,0,0,1,.55.39.33.33,0,0,1-.13.45.37.37,0,0,0-.15.53.41.41,0,0,0,.56.14,1.08,1.08,0,0,0,.55-.67,1,1,0,0,0-.12-.84,1.78,1.78,0,0,0-2.35-.58,2.79,2.79,0,0,0-1.42,2,1.7,1.7,0,0,0,.52,1.52c1.69,1.59,3.37,1.15,5,.72s3.25-.86,5.19.52h-17.3l.81-2.43a.45.45,0,0,0,0-.11,3.76,3.76,0,0,0-.72-2.23,3.48,3.48,0,0,1,2.47-1,1.78,1.78,0,0,1,1.83,1.72.87.87,0,0,1-.89.84.34.34,0,0,1-.35-.33.42.42,0,0,0-.83,0,1.15,1.15,0,0,0,1.18,1.11,1.68,1.68,0,0,0,1.72-1.62,2.58,2.58,0,0,0-2.66-2.49,4.39,4.39,0,0,0-2.53.79,7,7,0,0,1,4.81-5.87,14.43,14.43,0,0,1,8.33-.39,5.3,5.3,0,0,1-.72,2.8,3.23,3.23,0,0,1-4.28,1,1.49,1.49,0,0,1-.55-2.12.8.8,0,0,1,.48-.34.89.89,0,0,1,.6.09.31.31,0,0,1,.13.17.24.24,0,0,1,0,.2.37.37,0,0,0,.13.53.43.43,0,0,0,.57-.13,1,1,0,0,0-.37-1.43,1.67,1.67,0,0,0-1.22-.18,1.6,1.6,0,0,0-1,.69,2.25,2.25,0,0,0,.83,3.19,4.1,4.1,0,0,0,5.42-1.25,6,6,0,0,0,.82-3,12.86,12.86,0,0,1,2.07.8c.64.65,1.88,2.17,1.1,3.41a1.3,1.3,0,0,1-1.71.43.52.52,0,0,1-.2-.72.14.14,0,0,1,.1-.06.11.11,0,0,1,.11,0,.43.43,0,0,0,.57-.14.38.38,0,0,0-.15-.53,1,1,0,0,0-.74-.09.94.94,0,0,0-.6.42,1.26,1.26,0,0,0,.5,1.78,2.17,2.17,0,0,0,2.84-.7,2.68,2.68,0,0,0,0-2.65,3.2,3.2,0,0,0,2.82,0,1.89,1.89,0,0,0,.74-2.67,1.43,1.43,0,0,0-1.89-.47,1,1,0,0,0-.45.56.86.86,0,0,0,.1.7.44.44,0,0,0,.57.14.37.37,0,0,0,.14-.53.15.15,0,0,1,0-.11.13.13,0,0,1,.07-.09.58.58,0,0,1,.76.19,1.14,1.14,0,0,1-.45,1.61c-1.32.72-2.94-.44-3.64-1a12.63,12.63,0,0,1-.85-1.95,7,7,0,0,0,3.18-.77,3.58,3.58,0,0,0,1.32-5.09,2.57,2.57,0,0,0-3.39-.78,1.49,1.49,0,0,0-.73.94,1.43,1.43,0,0,0,.18,1.14,1.15,1.15,0,0,0,1.53.36.38.38,0,0,0,.14-.54.43.43,0,0,0-.56-.13.35.35,0,0,1-.22,0,.3.3,0,0,1-.18-.13.7.7,0,0,1-.09-.56.73.73,0,0,1,.36-.45,1.7,1.7,0,0,1,2.26.52,2.83,2.83,0,0,1-1.05,4,6.37,6.37,0,0,1-3,.68,12.12,12.12,0,0,1,.42-7.84,7.35,7.35,0,0,1,6.24-4.51,3.81,3.81,0,0,0-.84,2.38,2.58,2.58,0,0,0,2.65,2.49,1.67,1.67,0,0,0,1.72-1.61,1.14,1.14,0,0,0-1.17-1.11.39.39,0,1,0,0,.78.34.34,0,0,1,.35.33.87.87,0,0,1-.9.84,1.78,1.78,0,0,1-1.83-1.72,3.15,3.15,0,0,1,1.06-2.33,4.44,4.44,0,0,0,2.37.69l.13,0,2.58-.76Z" />
  <path class="cls-1"
    d="M15.23,396.11v12l2.62-.56h.09a4.44,4.44,0,0,1,2.37.68,3.13,3.13,0,0,0,1.06-2.32,1.78,1.78,0,0,0-1.83-1.72.87.87,0,0,0-.9.84.34.34,0,0,0,.35.33.39.39,0,1,1,0,.77,1.13,1.13,0,0,1-1.17-1.1,1.68,1.68,0,0,1,1.72-1.62,2.58,2.58,0,0,1,2.65,2.5,3.79,3.79,0,0,1-.92,2.47,8.13,8.13,0,0,1,6.79,4.4,3.1,3.1,0,0,1,.84-1.68,3.39,3.39,0,0,1,2.5-.87,3.81,3.81,0,0,1,2.84,1.06,3.25,3.25,0,0,1,.86,2,4.19,4.19,0,0,1,2.56-1.06,2.9,2.9,0,0,1,1.85.68,2.57,2.57,0,0,1,.73,1.74,3.77,3.77,0,0,1-1.12,2.41,3.7,3.7,0,0,1,2.16.8,3.36,3.36,0,0,1,1.13,2.68,3,3,0,0,1-.92,2.34,3.53,3.53,0,0,1-1.79.8,7.61,7.61,0,0,1,4.67,6.37,4.44,4.44,0,0,1,2.64-.86,2.59,2.59,0,0,1,2.66,2.49A1.68,1.68,0,0,1,48,433.33a1.15,1.15,0,0,1-1.18-1.11.4.4,0,0,1,.41-.39.41.41,0,0,1,.42.39.34.34,0,0,0,.35.33.87.87,0,0,0,.89-.84A1.78,1.78,0,0,0,47,430a3.48,3.48,0,0,0-2.47,1,3.83,3.83,0,0,1,.72,2.23.25.25,0,0,1,0,.08l-.59,2.46H245.78l.78.77H14.41V395.25ZM18,408.32l-1.57.33,1.59.47a3.63,3.63,0,0,0,1.59-.4A3.46,3.46,0,0,0,18,408.32Zm22.94,14a2.27,2.27,0,0,0,.66-1.78,2.62,2.62,0,0,0-.85-2.1,3.4,3.4,0,0,0-2.61-.59.42.42,0,0,1-.43-.24.37.37,0,0,1,.13-.45s1.6-1.18,1.59-2.51a1.83,1.83,0,0,0-.48-1.19,2.18,2.18,0,0,0-1.27-.46,4.26,4.26,0,0,0-2.67,1.5.43.43,0,0,1-.48.13.39.39,0,0,1-.25-.41A2.61,2.61,0,0,0,31.4,411a2.57,2.57,0,0,0-1.9.62,3.06,3.06,0,0,0-.72,2.14,2.64,2.64,0,0,1,1.8-1.27A2,2,0,0,1,33,413.83a1,1,0,0,1,0,.3,1.16,1.16,0,0,1-.19.64,1.29,1.29,0,0,1-.81.56,1,1,0,0,1-.71-.1.89.89,0,0,1-.43-.54.39.39,0,0,1,.3-.47.41.41,0,0,1,.5.28.11.11,0,0,0,.06.07.11.11,0,0,0,.08,0,.53.53,0,0,0,.31-.21.48.48,0,0,0,0-.35,1.07,1.07,0,0,0-.52-.66,1.17,1.17,0,0,0-.86-.12c-.78.19-1.78.71-1.61,3a12.7,12.7,0,0,1,.14,1.85,13.48,13.48,0,0,1-.43,3.34,8.25,8.25,0,0,0,1.1-.13,8.21,8.21,0,0,1,6.58-6,.43.43,0,0,1,.34.11.41.41,0,0,1,.12.32s-.66,4.76-6.45,6.18a9.09,9.09,0,0,0-.14,1,16.42,16.42,0,0,1,3.57-.4,14.34,14.34,0,0,1,2,.13c2.48.16,3-.78,3.23-1.51a1,1,0,0,0-.12-.81,1.14,1.14,0,0,0-.7-.49.56.56,0,0,0-.38,0,.49.49,0,0,0-.22.29.11.11,0,0,0,0,.08.13.13,0,0,0,.07.05.38.38,0,0,1,.3.47.41.41,0,0,1-.5.28.91.91,0,0,1-.57-.4A.84.84,0,0,1,37,420a1.26,1.26,0,0,1,.6-.76,1.36,1.36,0,0,1,.68-.18,1.22,1.22,0,0,1,.32,0A1.83,1.83,0,0,1,40,421.34,2.54,2.54,0,0,1,38.64,423,3.59,3.59,0,0,0,40.92,422.35Zm-12.26-.1a12.48,12.48,0,0,1-.52,1.37q.72-.27,1.47-.48a8.51,8.51,0,0,1,.1-1C29.35,422.2,29,422.23,28.66,422.25ZM36,416.2A7.24,7.24,0,0,0,31,421a7.2,7.2,0,0,0,5.09-4.72l-.11,0Zm8.1,18.45.36-1.48a3.12,3.12,0,0,0-.43-1.51,3,3,0,0,0-.43,1.5ZM20,435.76h4.2L20,431.82Zm-4.76,0h3.94v-3.7H15.23Zm0-4.48h4.19l-4.19-3.94Zm0-5.9c1.47-1.83,1-3.38.56-4.89s-.93-3.11.75-4.7a2,2,0,0,1,1.62-.49,3,3,0,0,1,2.1,1.34,1.56,1.56,0,0,1-.63,2.2,1.25,1.25,0,0,1-.89.12,1.17,1.17,0,0,1-.72-.52.39.39,0,0,1,.15-.53.44.44,0,0,1,.57.14.36.36,0,0,0,.48.12.84.84,0,0,0,.41-.51.81.81,0,0,0-.09-.64,2.16,2.16,0,0,0-1.48-.95,1.13,1.13,0,0,0-.93.27c-1.35,1.26-1,2.45-.55,3.94.53,1.77,1.12,3.76-1.18,6.12l1,.91.16-.26a3.33,3.33,0,0,1,2.13-1.4,3.53,3.53,0,0,1,2.56.42,2,2,0,0,1,1,1.71,2,2,0,0,1-.33,1.08,1.5,1.5,0,0,1-2,.42,1,1,0,0,1-.44-.59.92.92,0,0,1,.13-.72.44.44,0,0,1,.57-.12.39.39,0,0,1,.13.54.16.16,0,0,0,0,.13.13.13,0,0,0,.08.1.62.62,0,0,0,.83-.17,1.22,1.22,0,0,0-.41-1.73,2.73,2.73,0,0,0-1.94-.32,2.58,2.58,0,0,0-1.62,1.07,2.86,2.86,0,0,0-.24.42l6.63,6.23.44-.23a2.48,2.48,0,0,0,1.14-1.52,2.26,2.26,0,0,0-.34-1.82,1.38,1.38,0,0,0-1.84-.39.55.55,0,0,0-.19.78.25.25,0,0,0,.12.08.18.18,0,0,0,.13,0,.44.44,0,0,1,.57.12.38.38,0,0,1-.13.54,1,1,0,0,1-.75.12,1,1,0,0,1-.63-.41,1.29,1.29,0,0,1,.44-1.86,2.26,2.26,0,0,1,1.15-.31,2.19,2.19,0,0,1,1.82.94,3,3,0,0,1,.45,2.41,3.2,3.2,0,0,1-1.5,2l-.27.15,1,.91c2.51-2.16,4.63-1.61,6.51-1.11,1.59.42,2.85.75,4.2-.51a1,1,0,0,0,.28-.88,2,2,0,0,0-1-1.39A.91.91,0,0,0,34,432a.32.32,0,0,0,.12.45.37.37,0,0,1,.15.53.41.41,0,0,1-.56.14,1.08,1.08,0,0,1-.55-.67,1,1,0,0,1,.12-.84,1.78,1.78,0,0,1,2.35-.58A2.79,2.79,0,0,1,37,433a1.7,1.7,0,0,1-.52,1.52c-1.69,1.59-3.37,1.15-5,.72s-3.26-.86-5.2.52h17.3l-.81-2.43a.45.45,0,0,1,0-.11,3.76,3.76,0,0,1,.72-2.23A3.48,3.48,0,0,0,41,430a1.78,1.78,0,0,0-1.83,1.72.87.87,0,0,0,.89.84.34.34,0,0,0,.35-.33.42.42,0,0,1,.83,0,1.15,1.15,0,0,1-1.18,1.11,1.68,1.68,0,0,1-1.72-1.62A2.58,2.58,0,0,1,41,429.22a4.37,4.37,0,0,1,2.53.79,7,7,0,0,0-4.81-5.87,14.43,14.43,0,0,0-8.33-.39,5.3,5.3,0,0,0,.72,2.8,3.23,3.23,0,0,0,4.28,1,1.48,1.48,0,0,0,.55-2.12.77.77,0,0,0-.48-.34.89.89,0,0,0-.6.09.31.31,0,0,0-.13.17.24.24,0,0,0,0,.2.38.38,0,0,1-.14.53.43.43,0,0,1-.57-.13,1,1,0,0,1,.37-1.43,1.68,1.68,0,0,1,1.22-.18,1.6,1.6,0,0,1,1,.69,2.25,2.25,0,0,1-.83,3.19A4.1,4.1,0,0,1,30.41,427a6,6,0,0,1-.82-3,12.86,12.86,0,0,0-2.07.8c-.64.65-1.87,2.17-1.1,3.41a1.3,1.3,0,0,0,1.71.43.52.52,0,0,0,.2-.72.14.14,0,0,0-.1-.06.11.11,0,0,0-.11,0,.43.43,0,0,1-.57-.14.39.39,0,0,1,.15-.53,1,1,0,0,1,.74-.09.94.94,0,0,1,.6.42,1.26,1.26,0,0,1-.5,1.78,2.17,2.17,0,0,1-2.84-.7,2.68,2.68,0,0,1,0-2.65,3.2,3.2,0,0,1-2.82,0,1.89,1.89,0,0,1-.74-2.67,1.43,1.43,0,0,1,1.89-.47,1,1,0,0,1,.45.56.86.86,0,0,1-.1.7.43.43,0,0,1-.56.14.37.37,0,0,1-.15-.53.15.15,0,0,0,0-.11.13.13,0,0,0-.07-.09.58.58,0,0,0-.76.19,1.14,1.14,0,0,0,.45,1.61c1.32.72,2.94-.44,3.64-1a12.63,12.63,0,0,0,.85-1.95,7,7,0,0,1-3.18-.77,3.59,3.59,0,0,1-1.32-5.09,2.57,2.57,0,0,1,3.39-.78,1.49,1.49,0,0,1,.73.94,1.39,1.39,0,0,1-.18,1.14,1.15,1.15,0,0,1-1.53.36.38.38,0,0,1-.14-.54.44.44,0,0,1,.57-.13.31.31,0,0,0,.21,0,.3.3,0,0,0,.18-.13.7.7,0,0,0,.09-.56.72.72,0,0,0-.35-.45,1.71,1.71,0,0,0-2.27.52,2.83,2.83,0,0,0,1.05,4,6.4,6.4,0,0,0,3,.68,12.12,12.12,0,0,0-.42-7.84,7.35,7.35,0,0,0-6.24-4.51,3.81,3.81,0,0,1,.84,2.38A2.58,2.58,0,0,1,19.54,414a1.67,1.67,0,0,1-1.72-1.61A1.14,1.14,0,0,1,19,411.31a.39.39,0,1,1,0,.78.34.34,0,0,0-.35.33.87.87,0,0,0,.9.84,1.78,1.78,0,0,0,1.83-1.72,3.15,3.15,0,0,0-1.06-2.33,4.44,4.44,0,0,1-2.37.69l-.13,0-2.58-.76Z" />
</svg>