<svg version="1.2" xmlns="http://www.w3.org/2000/svg" viewBox="0 0 224 224" width="224" height="224"><style>.a{fill:#f5e1c9}.b{fill:#20130d}</style><path class="a" d="m0 38c0-21 17-38 38-38h148c21 0 38 17 38 38v148c0 21-17 38-38 38h-148c-21 0-38-17-38-38z"/><path class="b" d="m204 102c-3-23-9.1-22.1-9.1-22.1l-74.5 25 34.1-73.6c0 0 1.6-5.4-20-11.4-22.3-6.3-23.9-0.4-23.9-0.4l-8.1 80-50.9-60.1c0 0-4.7-3.8-19.3 14.2-14.1 17.4-9.8 21-9.8 21l71 39.9-72.7 32.2c0 0-5 3.5 8.2 22.5 12.8 18.4 17.4 15.2 17.4 15.2l57.9-57.1 19.3 78.9c0 0 2.3 5.1 22.8-3.9 21.2-9.4 18.8-15 18.8-15l-45.2-65.4 81.5 3c0 0 5.6-0.7 2.5-22.9z"/></svg>